<?xml version="1.0" encoding="UTF-8" standalone="no"?>
<svg width="325px" height="325px" viewBox="0 0 325 325" version="1.1" xmlns="http://www.w3.org/2000/svg" xmlns:xlink="http://www.w3.org/1999/xlink">
    <!-- Generator: Sketch 39.1 (31720) - http://www.bohemiancoding.com/sketch -->
    <title>Slice</title>
    <desc>Created with Sketch.</desc>
    <defs></defs>
    <g id="Page-1" stroke="none" stroke-width="1" fill="none" fill-rule="evenodd">
        <g id="telecharger" transform="translate(16.000000, 16.000000)">
            <g id="Page-1">
                <g id="telecharger">
                    <g id="Page-1">
                        <g id="Desktop" transform="translate(53.000000, 108.000000)">
                            <rect id="Rectangle-54" fill="#D8D8D8" x="116" y="0" width="122" height="82" rx="0.9856"></rect>
                            <rect id="Path" fill="#945D3D" x="0" y="98" width="245" height="10"></rect>
                            <rect id="Path" fill="#945D3D" transform="translate(14.500000, 137.000000) rotate(-90.000000) translate(-14.500000, -137.000000) " x="-8.47058824" y="131.888889" width="45.9411765" height="10.2222222"></rect>
                            <rect id="Path" fill="#945D3D" transform="translate(227.687500, 135.000000) rotate(-90.000000) translate(-227.687500, -135.000000) " x="205.5" y="129.888889" width="44.375" height="10.2222222"></rect>
                            <rect id="Path" fill="#8B572A" x="7" y="108" width="233" height="5"></rect>
                            <rect id="Rectangle-53" fill="#1465C0" x="122" y="6" width="111" height="70"></rect>
                            <polygon id="Rectangle-53" fill="#42A5F6" points="233 76 233 6 122 76"></polygon>
                            <polygon id="Path-101" fill="#D8D8D8" points="154.145064 81.9594184 148.814453 92.9439021 206.875977 92.9439021 201.128462 81.9594184 154.145064 81.9594184"></polygon>
                            <rect id="Rectangle-55" fill="#9B9B9B" x="139" y="92" width="78" height="6"></rect>
                            <path d="" id="Path-2" stroke="#979797"></path>
                            <polygon id="Path-3" fill="#26A69A" points="232.882324 6.02734375 153.048828 6.02734375 162.679688 29.140625 159.393555 52.5288086 182.664062 69.4589844 211.705078 76.3671875 232.882324 76.3671875"></polygon>
                            <polygon id="Path-3" fill="#72B5AE" points="232.882324 6.02734375 159.508789 52.5996094 182.664062 69.4589844 211.705078 76.3671875 232.882324 76.3671875"></polygon>
                            <rect id="Rectangle" fill="#FFFFFF" x="128" y="27" width="42" height="29" rx="4"></rect>
                            <rect id="Rectangle-2" fill="#AAAAAA" x="132" y="32" width="26" height="3" rx="1.5"></rect>
                            <rect id="Rectangle-2" fill="#E8E8E8" x="132" y="40" width="33" height="3" rx="1.5"></rect>
                            <rect id="Rectangle-2" fill="#E8E8E8" x="132" y="46" width="33" height="3" rx="1.5"></rect>
                        </g>
                        <g id="DL">
                            <g id="monstre">
                                <ellipse id="Oval-8-copy-2" fill-opacity="0.4" fill="#000000" cx="78" cy="278.5" rx="60" ry="10.5"></ellipse>
                                <path d="M24.8481445,269.877106 L26.8388672,270.999068 C26.8388672,270.999068 28.3769323,267.23479 27.8400879,266.932227 C27.3032435,266.629664 24.8481445,269.877106 24.8481445,269.877106 L24.8481445,269.877106 L24.8481445,269.877106 Z" id="Path-17-copy-2" fill="#F1F7E8" transform="translate(26.400979, 268.955697) scale(1, -1) translate(-26.400979, -268.955697) "></path>
                                <path d="M159.328571,207.516026 L161.319293,208.637988 C161.319293,208.637988 162.857358,204.873711 162.320514,204.571148 C161.78367,204.268585 159.328571,207.516026 159.328571,207.516026 L159.328571,207.516026 L159.328571,207.516026 Z" id="Path-17-copy-3" fill="#F1F7E8" transform="translate(160.881406, 206.594617) rotate(27.000000) translate(-160.881406, -206.594617) "></path>
                                <path d="M18.0461855,269.877106 L20.0369082,270.999068 C20.0369082,270.999068 21.5749733,267.23479 21.0381289,266.932227 C20.5012845,266.629664 18.0461855,269.877106 18.0461855,269.877106 L18.0461855,269.877106 L18.0461855,269.877106 Z" id="Path-17-copy-2" fill="#F1F7E8" transform="translate(19.599020, 268.955697) scale(-1, -1) translate(-19.599020, -268.955697) "></path>
                                <path d="M153.943182,202.029815 L155.933904,203.151777 C155.933904,203.151777 157.471969,199.387499 156.935125,199.084936 C156.39828,198.782373 153.943182,202.029815 153.943182,202.029815 L153.943182,202.029815 L153.943182,202.029815 Z" id="Path-17-copy-3" fill="#F1F7E8" transform="translate(155.496017, 201.108406) rotate(248.000000) translate(-155.496017, -201.108406) "></path>
                                <path d="M21.6039898,271.402654 L23.6132237,273.113554 C23.6132237,273.113554 25.4755487,267.606694 24.9337123,267.14531 C24.3918759,266.683927 21.6039898,271.402654 21.6039898,271.402654 L21.6039898,271.402654 L21.6039898,271.402654 Z" id="Path-17-copy-2" fill="#F1F7E8" transform="translate(23.318276, 270.113554) rotate(148.000000) translate(-23.318276, -270.113554) "></path>
                                <path d="M156.297702,204.534507 L158.934821,206.245407 C158.934821,206.245407 161.379123,200.738547 160.667963,200.277163 C159.956803,199.81578 156.297702,204.534507 156.297702,204.534507 L156.297702,204.534507 L156.297702,204.534507 Z" id="Path-17-copy-3" fill="#F1F7E8" transform="translate(158.547702, 203.245407) rotate(259.000000) translate(-158.547702, -203.245407) "></path>
                                <path d="M110.26875,45.5423167 C110.26875,45.5423167 122.972656,44.1232639 118.676953,34.4776476 C114.38125,24.8320313 105.972914,12.6953129 110.26875,5.12608507 C114.564587,-2.44314236 114.061328,1.41059027 114.061328,1.41059027 C114.061328,1.41059027 117.226369,11.8940943 126.45625,20.3181424 C135.686132,28.7421865 140.545117,43.1711139 134.254687,51.483724 C127.964258,59.7963342 123.7,65.4852413 123.7,65.4852431 C123.7,65.4852448 110.26875,45.5423167 110.26875,45.5423167 L110.26875,45.5423167 L110.26875,45.5423167 Z" id="Path-1-copy-2" fill="#F1F7E8"></path>
                                <path d="M26.5043426,34.4776476 C22.2086395,24.8320313 13.8003037,12.6953129 18.0961395,5.12608507 C22.3919761,-2.44314236 21.8887177,1.41059027 21.8887177,1.41059027 C21.8887177,1.41059027 25.0537581,11.8940943 34.2836395,20.3181424 C43.5135211,28.7421865 48.3725066,43.1711139 42.082077,51.483724 C35.7916474,59.7963342 31.5273894,65.4852413 31.5273895,65.4852431 C31.5273896,65.4852448 18.0961395,45.5423167 18.0961395,45.5423167 C18.0961395,45.5423167 30.8000457,44.1232639 26.5043426,34.4776476 Z" id="Path-1-copy-3" fill="#F1F7E8" transform="translate(30.913695, 32.957443) scale(-1, 1) translate(-30.913695, -32.957443) "></path>
                                <path d="M46.2138592,223.111832 C42.2528743,237.096121 38.1595759,260.48203 53.921717,263.444215 C54.0045563,263.459783 54.0873239,263.475244 54.1700191,263.490597 L54.1700191,263.490597 C52.3031095,267.047229 48.7023781,274.229412 48.7023782,276.71717 C48.7023782,280.075557 60.9087491,280.458025 62.5469612,277.770188 C63.6709978,275.925966 65.4967059,269.16842 66.532024,265.108197 C82.707728,266.360095 93.8967716,263.896414 93.8967716,263.896414 C93.8967716,263.896414 104.436783,262.382393 105.777329,257.991767 C107.02585,253.902548 106.38671,223.01666 102.765546,214.297509 C128.845365,208.158913 148.69244,190.401504 148.69244,150.474071 C148.69244,98.2910943 114.791525,28 77.3823529,28 C39.9731811,28 0.791704963,98.2910943 0.791704963,150.474071 C0.791704963,189.411033 22.6063041,207.264262 49.2220024,213.819062 L49.2220024,213.819062 C48.8556066,214.812829 48.2906615,216.398154 47.6420229,218.403652 C44.5515082,220.410538 26.7710547,232.141717 21.2960564,239.898819 C15.2920927,248.405372 16.534474,264.77927 17.2286736,266.485582 C17.9228731,268.191893 24.8500906,268.873009 27.7032399,266.250326 C30.5563892,263.627642 24.2917047,248.239143 29.9438189,241.247668 C34.1867795,235.999269 42.3881514,227.182099 46.2138592,223.111832 L46.2138592,223.111832 L46.2138592,223.111832 Z" id="Path-8-copy-2" fill="#874476"></path>
                                <path d="M78.0783483,216.692345 L78.0783483,265.276429 C78.0783483,265.276429 83.1805988,265.207634 90.5127106,264.501185 C91.5705234,268.607977 93.2124428,274.559608 94.2526093,276.275261 C95.8884099,278.973354 108.076813,278.589427 108.076813,275.218225 C108.076813,272.840002 104.815958,266.187952 102.895003,262.475589 L102.895003,262.475589 C115.918096,256.945197 110.856095,233.324467 107.021196,220.583298 L107.021192,220.583299 C114.013181,222.195249 129.922143,225.521166 137.844958,224.417862 C148.178663,222.978827 159.353416,210.86196 160.133349,209.18686 C160.913282,207.511759 156.695922,201.986678 152.827515,201.69858 C148.959108,201.410481 141.927941,216.520417 132.94613,217.179176 C124.902059,217.769158 109.292026,217.72212 106.120198,217.705867 C105.559253,215.981908 105.069868,214.596473 104.731035,213.66806 C130.08679,207.204484 149.20512,189.307493 149.20512,149.941423 C149.20512,97.5593203 115.354106,27.8007812 78,27.8007812 C78.5424563,28.4880314 78,76.7692949 78,129.151398 C78,181.533501 77.9522189,216.777212 78,216.692366 C78.0261178,216.692366 78.0522339,216.692359 78.0783483,216.692345 L78.0783483,216.692345 L78.0783483,216.692345 Z" id="Path-8-copy-2" fill="#622B56"></path>
                                <path d="M75,143 C93.2253976,143 108,130.463974 108,115 C108,99.5360262 93.2253976,87 75,87 C56.7746024,87 42,99.5360262 42,115 C42,130.463974 56.7746024,143 75,143 L75,143 L75,143 Z" id="Oval-2-copy-3" fill="#AE5296"></path>
                                <path d="M74.5,136 C90.7924009,136 104,125.030977 104,111.5 C104,97.969023 90.7924009,87 74.5,87 C58.2075991,87 45,97.969023 45,111.5 C45,125.030977 58.2075991,136 74.5,136 L74.5,136 L74.5,136 Z" id="Oval-2-copy-2" fill="#F1F7E8"></path>
                                <path d="M75,136 C84.941126,136 93,127.941126 93,118 C93,108.058874 84.941126,100 75,100 C65.058874,100 57,108.058874 57,118 C57,127.941126 65.058874,136 75,136 L75,136 L75,136 Z" id="Oval-2-copy-3" fill="#000000"></path>
                                <path d="M68.5,113 C72.0898511,113 75,110.089851 75,106.5 C75,102.910149 72.0898511,100 68.5,100 C64.9101489,100 62,102.910149 62,106.5 C62,110.089851 64.9101489,113 68.5,113 L68.5,113 L68.5,113 Z" id="Oval-2-copy-4" fill="#F1F7E8"></path>
                                <path d="M79.5,124 C81.4329967,124 83,122.432997 83,120.5 C83,118.567003 81.4329967,117 79.5,117 C77.5670033,117 76,118.567003 76,120.5 C76,122.432997 77.5670033,124 79.5,124 L79.5,124 L79.5,124 Z" id="Oval-2-copy-5" fill="#F1F7E8"></path>
                                <circle id="Oval-15-copy-2" fill="#622B56" cx="65" cy="243" r="3"></circle>
                                <path d="M77.7219155,154.592939 C78.2821428,154.632136 105.828176,152.819492 108.839837,188.101916 C108.996434,188.303065 110.247849,195.421818 102.127477,195.421818 C94.0071041,195.421818 86.9066028,193.853915 77.7219155,193.853915 C68.5372281,193.853915 51.2602383,196.477846 51.2602383,196.477846 C51.2602383,196.477846 45.3714183,197.005861 45.3714187,190.301924 C45.3714187,183.597987 47.969049,156.289963 77.7219155,154.592939 L77.7219155,154.592939 L77.7219155,154.592939 Z" id="Path-3-copy-2" fill="#000000" transform="translate(77.185812, 175.537161) rotate(180.000000) translate(-77.185812, -175.537161) "></path>
                                <path d="M81.5,195 C85.0898511,195 88,192.089851 88,188.5 C88,184.910149 85.0898511,182 81.5,182 C77.9101489,182 75,184.910149 75,188.5 C75,192.089851 77.9101489,195 81.5,195 L81.5,195 L81.5,195 Z" id="Oval-9-copy-2" fill="#C63B5E"></path>
                                <path d="M71.5,195 C75.0898511,195 78,192.089851 78,188.5 C78,184.910149 75.0898511,182 71.5,182 C67.9101489,182 65,184.910149 65,188.5 C65,192.089851 67.9101489,195 71.5,195 L71.5,195 L71.5,195 Z" id="Oval-9-copy-3" fill="#C63B5E"></path>
                                <path d="M65.2768555,186.586426 L64.1625976,193.871582 C64.1625976,193.871582 67.7060682,196.471191 75.8901367,196.471191 C84.0742052,196.471192 89.231933,193.871582 89.231933,193.871582 L87.5322266,186.586426 L65.2768555,186.586426 L65.2768555,186.586426 L65.2768555,186.586426 Z" id="Path-16-copy-2" fill="#C63B5E"></path>
                                <circle id="Oval-11-copy-2" fill="#874476" cx="108" cy="73" r="5"></circle>
                                <circle id="Oval-11-copy-3" fill="#874476" cx="126" cy="103" r="5"></circle>
                                <circle id="Oval-14-copy-2" fill="#622B56" cx="56" cy="227" r="2"></circle>
                                <circle id="Oval-14-copy-3" fill="#622B56" cx="64" cy="254" r="2"></circle>
                                <circle id="Oval-14-copy-3" fill="#622B56" cx="53.5" cy="248.5" r="4.5"></circle>
                                <circle id="Oval-14-copy-4" fill="#622B56" cx="66.5" cy="216.5" r="4.5"></circle>
                                <circle id="Oval-11-copy-3" fill="#874476" cx="112" cy="92" r="3"></circle>
                                <circle id="Oval-11-copy-4" fill="#874476" cx="121" cy="116" r="3"></circle>
                                <circle id="Oval-11-copy-5" fill="#874476" cx="122" cy="88" r="3"></circle>
                                <circle id="Oval-11-copy-4" fill="#874476" cx="101" cy="62" r="3"></circle>
                            </g>
                            <path d="M82.4075674,209.41663 C82.4075674,209.41663 86.3537843,204.999999 91.5200937,205 C96.6864032,205.000001 98.9014597,207.658643 98.90146,210.923851 C98.90146,214.189059 97.8314527,216.350109 97.831453,218.52035 C97.831453,220.690591 100.944436,223.186433 97.0085698,225.107221 C93.0727036,227.028009 84.5372307,223.849453 84.5372307,223.849453 L82.3985105,222.340919 C82.3985105,222.340919 80.5069141,225.011379 77.0614139,225.011379 C73.6159138,225.011379 70.9001403,222.168928 70.9001403,222.168928 C70.9001403,222.168928 65.8942672,226 60.3113407,226 C54.7284142,226 54.2367542,223.65186 55.7130277,219.57593 C57.1893009,215.5 55.381804,214.87046 55.3818042,212.143545 C55.3818047,209.41663 56.8477271,205.892779 60.3967343,205.892779 C63.9457414,205.892779 69.6231186,208.724726 69.6231186,208.724726 C69.6231186,208.724726 73.2199979,206.651641 76.6732615,206.651641 C80.126525,206.651641 82.4075674,209.41663 82.4075674,209.41663 L82.4075674,209.41663 L82.4075674,209.41663 Z" id="Path-20" fill="#39864F"></path>
                            <path d="M80.5400391,207.41663 C80.5400391,207.41663 86.3537843,202.999999 91.5200937,203 C96.6864032,203.000001 98.9014597,205.658643 98.90146,208.923851 C98.90146,212.189059 97.8314527,214.350109 97.831453,216.52035 C97.831453,218.690591 100.944436,221.186433 97.0085698,223.107221 C93.0727036,225.028009 84.5372307,221.849453 84.5372307,221.849453 L80.5400391,219.124023 C80.5400391,219.124023 80.1187618,221.849453 76.6732616,221.849453 C73.2277615,221.849453 71.3769531,219.124023 71.3769531,219.124023 C71.3769531,219.124023 65.8942672,224 60.3113407,224 C54.7284142,224 54.2367542,221.65186 55.7130277,217.57593 C57.1893009,213.5 55.381804,212.87046 55.3818042,210.143545 C55.3818047,207.41663 56.8477271,203.892779 60.3967343,203.892779 C63.9457414,203.892779 70.4374999,207.967538 71.3769531,207.41663 C72.3164062,206.865723 72.6333008,204.541015 76.1083984,204.541016 C79.5834961,204.541016 80.5400391,207.41663 80.5400391,207.41663 L80.5400391,207.41663 L80.5400391,207.41663 Z" id="Path-20" fill="#61CC7F"></path>
                            <path d="M51.1318359,155.705078 C50.6645508,156.210937 52.1123047,164.576904 56.1723633,164.576904 C60.2324219,164.576905 61.6323245,156.250977 61.6323242,156.250977 C61.6323239,156.250977 51.5991211,155.199219 51.1318359,155.705078 L51.1318359,155.705078 L51.1318359,155.705078 Z M63.8028564,156.422241 C63.1817627,156.422241 65.1123047,166.00942 69.1723633,166.009421 C73.2324219,166.009422 74.5566402,157.251953 74.5566402,157.251953 C74.5566402,157.251953 64.4678955,156.584717 63.8028564,156.422241 L63.8028564,156.422241 L63.8028564,156.422241 Z M100.318603,155.041992 C100.318603,155.041992 99.2734375,163.99707 95.2133789,163.99707 C91.1533203,163.997071 89.9675293,156.263428 89.9675293,156.263428 L100.318603,155.041992 L100.318603,155.041992 L100.318603,155.041992 Z M87.6374512,156.540405 C88.4061279,156.38501 86.3209833,165.99707 82.2609247,165.99707 C78.2008661,165.997071 76.5454105,157.90625 76.9472656,157.24585 C77.597168,157.365234 86.8687744,156.695801 87.6374512,156.540405 L87.6374512,156.540405 L87.6374512,156.540405 Z" id="Path-39" fill="#FFFFFF"></path>
                        </g>
                    </g>
                </g>
            </g>
        </g>
        <g id="Group-2" transform="translate(251.000000, 146.000000)">
            <path d="M9.77379452,29.3213835 C9.77379452,29.3213835 0,15.1725942 0,9.77379452 C0,4.3762165 4.3762165,0 9.77379452,0 C15.1713725,0 19.547589,4.3762165 19.547589,9.77379452 C19.547589,15.1725942 9.77379452,29.3213835 9.77379452,29.3213835 Z" id="Fill-5594" fill="#EF5350"></path>
            <path d="M13.4389675,9.77379452 C13.4389675,11.7981917 11.7981917,13.4389675 9.77379452,13.4389675 C7.74939732,13.4389675 6.10862156,11.7981917 6.10862156,9.77379452 C6.10862156,7.74939732 7.74939732,6.10862156 9.77379452,6.10862156 C11.7981917,6.10862156 13.4389675,7.74939732 13.4389675,9.77379452" id="Fill-5595" fill="#FFFFFF"></path>
        </g>
    </g>
</svg>