<?xml version="1.0" encoding="UTF-8" standalone="no"?>
<svg width="316px" height="289px" viewBox="0 0 316 289" version="1.1" xmlns="http://www.w3.org/2000/svg" xmlns:xlink="http://www.w3.org/1999/xlink" xmlns:sketch="http://www.bohemiancoding.com/sketch/ns">
    <!-- Generator: Sketch 3.3.3 (12081) - http://www.bohemiancoding.com/sketch -->
    <title>libraire</title>
    <desc>Created with Sketch.</desc>
    <defs></defs>
    <g id="Page-1" stroke="none" stroke-width="1" fill="none" fill-rule="evenodd" sketch:type="MSPage">
        <g id="libraire" sketch:type="MSLayerGroup">
            <g id="Page-1" sketch:type="MSShapeGroup">
                <g id="Dico">
                    <g id="Librairy" transform="translate(108.000000, 61.000000)">
                        <rect id="Rectangle-30" fill="#8B572A" x="1" y="69" width="207" height="9"></rect>
                        <rect id="Rectangle-30" fill="#8B572A" x="1" y="0" width="207" height="9"></rect>
                        <path d="M-31.8183594,33.1816406 L-31.8183594,42.1816406 L42.8183594,42.1816406 L42.8183594,33.1816406 L-31.8183594,33.1816406 L-31.8183594,33.1816406 Z" id="Rectangle-30" fill="#8B572A" transform="translate(5.500000, 37.681641) rotate(90.000000) translate(-5.500000, -37.681641) "></path>
                        <path d="M166.181641,33.1816405 L166.181641,42.1816405 L240.81836,42.1816405 L240.81836,33.1816405 L166.181641,33.1816405 L166.181641,33.1816405 Z" id="Rectangle-30" fill="#8B572A" transform="translate(203.500000, 37.681641) rotate(90.000000) translate(-203.500000, -37.681641) "></path>
                        <rect id="Rectangle-34" fill="#622B56" x="10" y="30" width="9" height="39"></rect>
                        <rect id="Rectangle-34" fill="#F5972D" x="101" y="30" width="9" height="39"></rect>
                        <rect id="Rectangle-34" fill="#C9700D" x="110" y="30" width="9" height="39"></rect>
                        <rect id="Rectangle-34" fill="#C9700D" x="128" y="30" width="9" height="39"></rect>
                        <rect id="Rectangle-34" fill="#622B56" x="137" y="30" width="9" height="39"></rect>
                        <rect id="Rectangle-34" fill="#EF8610" x="119" y="30" width="9" height="39"></rect>
                        <rect id="Rectangle-34" fill="#39864F" x="19" y="26" width="13" height="43"></rect>
                        <rect id="Rectangle-34" fill="#61CC7F" x="32" y="33" width="10" height="36"></rect>
                        <rect id="Rectangle-34" fill="#39864F" x="146" y="26" width="13" height="43"></rect>
                        <rect id="Rectangle-34" fill="#61CC7F" x="159" y="33" width="10" height="36"></rect>
                        <rect id="Rectangle-34" fill="#874476" x="91" y="33" width="10" height="36"></rect>
                        <rect id="Rectangle-34" fill="#61CC7F" transform="translate(67.203125, 49.914462) rotate(32.000000) translate(-67.203125, -49.914462) " x="62.2031249" y="31.9144621" width="10" height="36"></rect>
                        <rect id="Rectangle-34" fill="#B8E986" x="42" y="23.5986328" width="10" height="45.4013672"></rect>
                        <rect id="Rectangle-34" fill="#7ED5E0" x="169" y="23.5986328" width="10" height="45.4013672"></rect>
                        <rect id="Rectangle-34" fill="#7ED5E0" x="81" y="23.5986328" width="10" height="45.4013672"></rect>
                        <path id="Path-78" fill="#D8D8D8" d="M10.09375,30.0761719 L19.0229492,30.0761719 L10.09375,30.0761719 L10.09375,30.0761719 Z"></path>
                    </g>
                    <g id="Dictionnaire">
                        <ellipse id="Oval-8-copy-2" fill-opacity="0.4" fill="#000000" cx="78" cy="278.5" rx="60" ry="10.5"></ellipse>
                        <path d="M110.26875,45.5423167 C110.26875,45.5423167 122.972656,44.1232639 118.676953,34.4776476 C114.38125,24.8320313 105.972914,12.6953129 110.26875,5.12608507 C114.564587,-2.44314236 114.061328,1.41059027 114.061328,1.41059027 C114.061328,1.41059027 117.226369,11.8940943 126.45625,20.3181424 C135.686132,28.7421865 140.545117,43.1711139 134.254687,51.483724 C127.964258,59.7963342 123.7,65.4852413 123.7,65.4852431 C123.7,65.4852448 110.26875,45.5423167 110.26875,45.5423167 L110.26875,45.5423167 Z" id="Path-1-copy-2" fill="#F1F7E8"></path>
                        <path d="M18.0961395,45.5423167 C18.0961395,45.5423167 30.8000457,44.1232639 26.5043426,34.4776476 C22.2086395,24.8320313 13.8003037,12.6953129 18.0961395,5.12608507 C22.3919761,-2.44314236 21.8887177,1.41059027 21.8887177,1.41059027 C21.8887177,1.41059027 25.0537581,11.8940943 34.2836395,20.3181424 C43.5135211,28.7421865 48.3725066,43.1711139 42.082077,51.483724 C35.7916474,59.7963342 31.5273894,65.4852413 31.5273895,65.4852431 C31.5273896,65.4852448 18.0961395,45.5423167 18.0961395,45.5423167 L18.0961395,45.5423167 Z" id="Path-1-copy-3" fill="#F1F7E8" transform="translate(30.913695, 32.957443) scale(-1, 1) translate(-30.913695, -32.957443) "></path>
                        <path d="M54.1700191,263.490597 C54.0873239,263.475244 54.0045563,263.459783 53.921717,263.444215 C33.3834613,259.584453 46.5565595,221.048481 49.2220024,213.819062 L49.2220024,213.819062 C22.6063041,207.264262 0.791704963,189.411033 0.791704963,150.474071 C0.791704963,98.2910943 39.9731811,28 77.3823529,28 C114.791525,28 148.69244,98.2910943 148.69244,150.474071 C148.69244,190.401504 128.845365,208.158913 102.765546,214.297509 C106.38671,223.01666 107.02585,253.902548 105.777329,257.991767 C104.436783,262.382393 93.8967716,263.896414 93.8967716,263.896414 C93.8967716,263.896414 82.707728,266.360095 66.532024,265.108197 C65.4967059,269.16842 63.6709978,275.925966 62.5469612,277.770188 C60.9087491,280.458025 48.7023782,280.075557 48.7023782,276.71717 C48.7023781,274.229412 52.3031095,267.047229 54.1700191,263.490597 L54.1700191,263.490597 Z" id="Path-8-copy-2" fill="#874476"></path>
                        <path d="M104.731035,213.66806 C107.360873,220.873909 119.060073,255.610924 102.895003,262.475589 L102.895003,262.475589 C104.815958,266.187952 108.076813,272.840002 108.076813,275.218225 C108.076813,278.589427 95.8884099,278.973354 94.2526093,276.275261 C93.2124428,274.559608 91.5705234,268.607977 90.5127106,264.501185 C83.1805988,265.207634 78.0783483,265.276429 78.0783483,265.276429 L78.0783483,216.692345 C78.0522339,216.692359 78.0261178,216.692366 78,216.692366 C77.9522189,216.777212 78,181.533501 78,129.151398 C78,76.7692949 78.5424563,28.4880314 78,27.8007812 C115.354106,27.8007812 149.20512,97.5593203 149.20512,149.941423 C149.20512,189.307493 130.08679,207.204484 104.731035,213.66806 L104.731035,213.66806 Z" id="Path-8-copy-2" fill="#622B56"></path>
                        <path d="M75,143 C93.2253976,143 108,130.463974 108,115 C108,99.5360262 93.2253976,87 75,87 C56.7746024,87 42,99.5360262 42,115 C42,130.463974 56.7746024,143 75,143 L75,143 Z" id="Oval-2-copy-3" fill="#AE5296"></path>
                        <path d="M74.5,136 C90.7924009,136 104,125.030977 104,111.5 C104,97.969023 90.7924009,87 74.5,87 C58.2075991,87 45,97.969023 45,111.5 C45,125.030977 58.2075991,136 74.5,136 L74.5,136 Z" id="Oval-2-copy-2" fill="#F1F7E8"></path>
                        <path d="M75,136 C84.941126,136 93,127.941126 93,118 C93,108.058874 84.941126,100 75,100 C65.058874,100 57,108.058874 57,118 C57,127.941126 65.058874,136 75,136 L75,136 Z" id="Oval-2-copy-3" fill="#000000"></path>
                        <path d="M68.5,113 C72.0898511,113 75,110.089851 75,106.5 C75,102.910149 72.0898511,100 68.5,100 C64.9101489,100 62,102.910149 62,106.5 C62,110.089851 64.9101489,113 68.5,113 L68.5,113 Z" id="Oval-2-copy-4" fill="#F1F7E8"></path>
                        <path d="M79.5,124 C81.4329967,124 83,122.432997 83,120.5 C83,118.567003 81.4329967,117 79.5,117 C77.5670033,117 76,118.567003 76,120.5 C76,122.432997 77.5670033,124 79.5,124 L79.5,124 Z" id="Oval-2-copy-5" fill="#F1F7E8"></path>
                        <circle id="Oval-15-copy-2" fill="#622B56" cx="65" cy="243" r="3"></circle>
                        <path d="M77.7219155,154.592939 C78.2821428,154.632136 105.828176,152.819492 108.839837,188.101916 C108.996434,188.303065 110.247849,195.421818 102.127477,195.421818 C94.0071041,195.421818 86.9066028,193.853915 77.7219155,193.853915 C68.5372281,193.853915 51.2602383,196.477846 51.2602383,196.477846 C51.2602383,196.477846 45.3714183,197.005861 45.3714187,190.301924 C45.3714187,183.597987 47.969049,156.289963 77.7219155,154.592939 L77.7219155,154.592939 Z" id="Path-3-copy-2" fill="#000000" transform="translate(77.185811, 175.537160) rotate(180.000000) translate(-77.185811, -175.537160) "></path>
                        <path d="M81.5,195 C85.0898511,195 88,192.089851 88,188.5 C88,184.910149 85.0898511,182 81.5,182 C77.9101489,182 75,184.910149 75,188.5 C75,192.089851 77.9101489,195 81.5,195 L81.5,195 Z" id="Oval-9-copy-2" fill="#C63B5E"></path>
                        <path d="M71.5,195 C75.0898511,195 78,192.089851 78,188.5 C78,184.910149 75.0898511,182 71.5,182 C67.9101489,182 65,184.910149 65,188.5 C65,192.089851 67.9101489,195 71.5,195 L71.5,195 Z" id="Oval-9-copy-3" fill="#C63B5E"></path>
                        <path d="M65.2768555,186.586426 L64.1625976,193.871582 C64.1625976,193.871582 67.7060682,196.471191 75.8901367,196.471191 C84.0742052,196.471192 89.231933,193.871582 89.231933,193.871582 L87.5322266,186.586426 L65.2768555,186.586426 L65.2768555,186.586426 Z" id="Path-16-copy-2" fill="#C63B5E"></path>
                        <circle id="Oval-11-copy-2" fill="#874476" cx="108" cy="73" r="5"></circle>
                        <circle id="Oval-11-copy-3" fill="#874476" cx="126" cy="103" r="5"></circle>
                        <circle id="Oval-14-copy-2" fill="#622B56" cx="56" cy="227" r="2"></circle>
                        <circle id="Oval-14-copy-3" fill="#622B56" cx="64" cy="254" r="2"></circle>
                        <circle id="Oval-14-copy-3" fill="#622B56" cx="53.5" cy="248.5" r="4.5"></circle>
                        <circle id="Oval-14-copy-4" fill="#622B56" cx="66.5" cy="216.5" r="4.5"></circle>
                        <circle id="Oval-11-copy-3" fill="#874476" cx="112" cy="92" r="3"></circle>
                        <circle id="Oval-11-copy-4" fill="#874476" cx="121" cy="116" r="3"></circle>
                        <circle id="Oval-11-copy-5" fill="#874476" cx="122" cy="88" r="3"></circle>
                        <circle id="Oval-11-copy-4" fill="#874476" cx="101" cy="62" r="3"></circle>
                        <path d="M82.4075674,209.41663 C82.4075674,209.41663 86.3537843,204.999999 91.5200937,205 C96.6864032,205.000001 98.9014597,207.658643 98.90146,210.923851 C98.90146,214.189059 97.8314527,216.350109 97.831453,218.52035 C97.831453,220.690591 100.944436,223.186433 97.0085698,225.107221 C93.0727036,227.028009 84.5372307,223.849453 84.5372307,223.849453 L82.3985105,222.340919 C82.3985105,222.340919 80.5069141,225.011379 77.0614139,225.011379 C73.6159138,225.011379 70.9001403,222.168928 70.9001403,222.168928 C70.9001403,222.168928 65.8942672,226 60.3113407,226 C54.7284142,226 54.2367542,223.65186 55.7130277,219.57593 C57.1893009,215.5 55.381804,214.87046 55.3818042,212.143545 C55.3818047,209.41663 56.8477271,205.892779 60.3967343,205.892779 C63.9457414,205.892779 69.6231186,208.724726 69.6231186,208.724726 C69.6231186,208.724726 73.2199979,206.651641 76.6732615,206.651641 C80.126525,206.651641 82.4075674,209.41663 82.4075674,209.41663 L82.4075674,209.41663 Z" id="Path-20" fill="#C9700D"></path>
                        <path d="M80.5400391,207.41663 C80.5400391,207.41663 86.3537843,202.999999 91.5200937,203 C96.6864032,203.000001 98.9014597,205.658643 98.90146,208.923851 C98.90146,212.189059 97.8314527,214.350109 97.831453,216.52035 C97.831453,218.690591 100.944436,221.186433 97.0085698,223.107221 C93.0727036,225.028009 84.5372307,221.849453 84.5372307,221.849453 L80.5400391,219.124023 C80.5400391,219.124023 80.1187618,221.849453 76.6732616,221.849453 C73.2277615,221.849453 71.3769531,219.124023 71.3769531,219.124023 C71.3769531,219.124023 65.8942672,224 60.3113407,224 C54.7284142,224 54.2367542,221.65186 55.7130277,217.57593 C57.1893009,213.5 55.381804,212.87046 55.3818042,210.143545 C55.3818047,207.41663 56.8477271,203.892779 60.3967343,203.892779 C63.9457414,203.892779 70.4374999,207.967538 71.3769531,207.41663 C72.3164062,206.865723 72.6333008,204.541015 76.1083984,204.541016 C79.5834961,204.541016 80.5400391,207.41663 80.5400391,207.41663 L80.5400391,207.41663 Z" id="Path-20" fill="#F5972D"></path>
                        <path d="M51.1318359,155.705078 C50.6645508,156.210937 52.1123047,164.576904 56.1723633,164.576904 C60.2324219,164.576905 61.6323245,156.250977 61.6323242,156.250977 C61.6323239,156.250977 51.5991211,155.199219 51.1318359,155.705078 L51.1318359,155.705078 Z M63.8028564,156.422241 C63.1817627,156.422241 65.1123047,166.00942 69.1723633,166.009421 C73.2324219,166.009422 74.5566402,157.251953 74.5566402,157.251953 C74.5566402,157.251953 64.4678955,156.584717 63.8028564,156.422241 L63.8028564,156.422241 Z M100.318603,155.041992 C100.318603,155.041992 99.2734375,163.99707 95.2133789,163.99707 C91.1533203,163.997071 89.9675293,156.263428 89.9675293,156.263428 L100.318603,155.041992 L100.318603,155.041992 Z M87.6374512,156.540405 C88.4061279,156.38501 86.3209833,165.99707 82.2609247,165.99707 C78.2008661,165.997071 76.5454105,157.90625 76.9472656,157.24585 C77.597168,157.365234 86.8687744,156.695801 87.6374512,156.540405 L87.6374512,156.540405 Z" id="Path-39" fill="#FFFFFF"></path>
                    </g>
                    <g id="Group" transform="translate(60.000000, 213.000000)">
                        <path d="M0,0 L28,0 L28,39 L0,39 L0,0 L0,0 Z" id="Fill-7" fill="#39864F"></path>
                        <path d="M28.2609129,1 L1,1 L1,39.1192383 L5.73483475,43.0642578 L5.73483489,4.87523313 L33,4.87523313 L28.2609129,1 L28.2609129,1 Z" id="Fill-9" fill="#E1D3A9"></path>
                        <path d="M5.10003875,4.26865672 L0,0 L0,39.2046908 L5.10003875,43 L33,43 L33,4.26865672 L7.18864634,4.26865672 L5.10003875,4.26865672 L5.10003875,4.26865672 Z" id="Fill-10" fill="#61CC7F"></path>
                    </g>
                    <path d="M47.9585748,194.934521 C47.9585748,194.934521 43.4881016,219.208964 45.6147068,229.40144 C47.7413121,239.593916 60.5637255,249.852268 62.2850856,250.508264 C64.0064457,251.16426 69.2289333,246.562534 69.2566672,242.687207 C69.2844011,238.81188 53.7574605,232.898649 52.4989523,223.99678 C51.240444,215.094911 50.1409268,196.736748 50.1409268,196.736748 L47.9585748,194.934521 L47.9585748,194.934521 Z" id="Path-15" fill="#874476"></path>
                    <g id="fingers" transform="translate(68.907227, 247.946777) rotate(-59.000000) translate(-68.907227, -247.946777) translate(63.907227, 243.946777)" fill="#F1F7E8">
                        <path d="M6.84814453,3.87710633 L8.83886719,4.99906813 C8.83886719,4.99906813 10.3769323,1.2347908 9.84008789,0.932227855 C9.30324346,0.629664904 6.84814453,3.87710633 6.84814453,3.87710633 L6.84814453,3.87710633 Z" id="Path-17-copy-2" transform="translate(8.400979, 2.955697) scale(1, -1) translate(-8.400979, -2.955697) "></path>
                        <path d="M0.046185532,3.87710633 L2.03690819,4.99906813 C2.03690819,4.99906813 3.57497332,1.2347908 3.03812889,0.932227855 C2.50128446,0.629664904 0.046185532,3.87710633 0.046185532,3.87710633 L0.046185532,3.87710633 Z" id="Path-17-copy-2" transform="translate(1.599021, 2.955697) scale(-1, -1) translate(-1.599021, -2.955697) "></path>
                        <path d="M3.60398969,5.40265388 L5.61322355,7.11355413 C5.61322355,7.11355413 7.47554862,1.60669436 6.93371221,1.14531053 C6.3918758,0.683926707 3.60398969,5.40265388 3.60398969,5.40265388 L3.60398969,5.40265388 Z" id="Path-17-copy-2" transform="translate(5.318275, 4.113554) rotate(148.000000) translate(-5.318275, -4.113554) "></path>
                    </g>
                    <path d="M109.45802,199.139143 C109.45802,199.139143 109.586169,223.823024 105.68993,233.501639 C101.793691,243.180255 87.3333289,251.091734 85.5193034,251.443257 C83.7052779,251.794779 79.3645868,246.366055 80.0208986,242.542858 C80.6772103,238.719662 97.0393091,235.552775 99.8513972,226.99713 C102.663486,218.441486 106.986965,200.541111 106.986965,200.541111 L109.45802,199.139143 L109.45802,199.139143 Z" id="Path-15" fill="#622B56"></path>
                    <g id="fingers2" transform="translate(80.578502, 247.552854) rotate(200.000000) translate(-80.578502, -247.552854) translate(75.578502, 242.052854)" fill="#F1F7E8">
                        <path d="M5.3388241,8.91592873 L7.32954676,10.0378905 C7.32954676,10.0378905 8.86761189,6.2736132 8.33076746,5.97105025 C7.79392303,5.6684873 5.3388241,8.91592873 5.3388241,8.91592873 L5.3388241,8.91592873 Z" id="Path-17-copy-3" transform="translate(6.891659, 7.994520) rotate(27.000000) translate(-6.891659, -7.994520) "></path>
                        <path d="M0.94318198,4.02981538 L2.93390464,5.15177718 C2.93390464,5.15177718 4.47196977,1.38749985 3.93512534,1.0849369 C3.39828091,0.78237395 0.94318198,4.02981538 0.94318198,4.02981538 L0.94318198,4.02981538 Z" id="Path-17-copy-3" transform="translate(2.496017, 3.108406) rotate(248.000000) translate(-2.496017, -3.108406) "></path>
                        <path d="M3.29770225,6.53450655 L5.93482169,8.2454068 C5.93482169,8.2454068 8.37912334,2.73854703 7.66796306,2.2771632 C6.95680277,1.81577938 3.29770225,6.53450655 3.29770225,6.53450655 L3.29770225,6.53450655 Z" id="Path-17-copy-3" transform="translate(5.547702, 5.245407) rotate(259.000000) translate(-5.547702, -5.245407) "></path>
                    </g>
                </g>
            </g>
        </g>
    </g>
</svg>