<?xml version="1.0" encoding="UTF-8" standalone="no"?>
<svg width="849px" height="569px" viewBox="0 0 849 569" version="1.1" xmlns="http://www.w3.org/2000/svg" xmlns:xlink="http://www.w3.org/1999/xlink" xmlns:sketch="http://www.bohemiancoding.com/sketch/ns">
    <!-- Generator: Sketch 3.5.1 (25234) - http://www.bohemiancoding.com/sketch -->
    <title>map</title>
    <desc>Created with Sketch.</desc>
    <defs></defs>
    <g id="Page-1" stroke="none" stroke-width="1" fill="none" fill-rule="evenodd" sketch:type="MSPage">
        <circle id="Oval-2" stroke="#EF5350" stroke-width="5" stroke-linecap="round" stroke-dasharray="6,17" fill-opacity="0.599999964" fill="#133B5A" sketch:type="MSShapeGroup" cx="431.5" cy="285.5" r="273.5"></circle>
        <ellipse id="Oval-1" fill-opacity="0.299999982" fill="#000000" sketch:type="MSShapeGroup" cx="429.5" cy="488.5" rx="167.5" ry="18.5"></ellipse>
        <g id="Group" sketch:type="MSLayerGroup" transform="translate(234.153900, 87.386047)">
            <path d="M393.891113,196.945557 C393.891113,305.712528 305.712528,393.891113 196.945557,393.891113 C88.1785856,393.891113 0,305.712528 0,196.945557 C0,88.1785856 88.1785856,0 196.945557,0 C305.712528,0 393.891113,88.1785856 393.891113,196.945557" id="Fill-6632" fill="#1465C0" sketch:type="MSShapeGroup"></path>
            <path d="M196.945557,0 C88.1785856,0 0,88.1785856 0,196.945557 C0,247.227272 18.8688993,293.077713 49.8726748,327.884052 L327.884052,49.8726748 C293.077713,18.8688993 247.227272,0 196.945557,0" id="Fill-6633" fill="#42A5F6" sketch:type="MSShapeGroup"></path>
            <path d="M151.496582,190.001711 L98.4727783,212.726198 L75.748291,152.127565 L143.921753,152.127565 L189.370728,91.5289325 L189.370728,68.8044452 L100.8437,25.0522323 C58.6670514,48.6856991 26.1028611,87.3703513 10.3926655,133.841928 L45.4489746,212.726198 L90.8979492,250.600344 L151.496582,364.22278 L174.221069,364.22278 L212.095215,250.600344 L151.496582,190.001711 Z" id="Fill-6634" fill="#26A69A" sketch:type="MSShapeGroup"></path>
            <path d="M151.496582,190.001711 L98.4727783,212.726198 L75.748291,152.127565 L143.921753,152.127565 L189.370728,91.5289325 L189.370728,68.8044452 L100.8437,25.0522323 C58.6670514,48.6856991 26.1028611,87.3703513 10.3926655,133.841928 L45.4489746,212.726198 L90.8979492,250.600344 L103.51004,274.24896 L169.630723,208.135852 L151.496582,190.001711 Z" id="Fill-6635" fill="#80CBC4" sketch:type="MSShapeGroup"></path>
            <path d="M393.891113,196.945557 C393.891113,122.454687 352.524972,57.6368746 291.517298,24.1712797 L242.394531,106.047607 L280.268677,128.772095 L318.142822,98.4727783 L340.86731,128.772095 L363.591797,128.772095 L363.591797,151.496582 L287.843506,143.921753 L257.544189,189.370728 L242.394531,272.693848 L272.693848,310.567993 L278.776435,376.075115 C346.684778,345.003166 393.891113,276.511562 393.891113,196.945557" id="Fill-6636" fill="#26A69A" sketch:type="MSShapeGroup"></path>
            <path d="M242.394531,106.047607 L260.718043,117.038684 L327.823454,49.9332734 C316.749054,40.0708459 304.621752,31.3597925 291.517298,24.1712797 L242.394531,106.047607 Z" id="Fill-6637" fill="#80CBC4" sketch:type="MSShapeGroup"></path>
        </g>
        <g id="Group-2" sketch:type="MSLayerGroup" transform="translate(487.910675, 51.405609)">
            <path d="M82.4847601,41.2423801 C82.4847601,64.0236397 41.2423801,123.72714 41.2423801,123.72714 C41.2423801,123.72714 0,64.0236397 0,41.2423801 C0,18.4662757 18.4662757,0 41.2423801,0 C64.0184845,0 82.4847601,18.4662757 82.4847601,41.2423801" id="Fill-5594" fill="#EF5350" sketch:type="MSShapeGroup"></path>
            <path d="M56.7082726,41.2423801 C56.7082726,49.784708 49.784708,56.7082726 41.2423801,56.7082726 C32.7000521,56.7082726 25.7764875,49.784708 25.7764875,41.2423801 C25.7764875,32.7000521 32.7000521,25.7764875 41.2423801,25.7764875 C49.784708,25.7764875 56.7082726,32.7000521 56.7082726,41.2423801" id="Fill-5595" fill="#FFFFFF" sketch:type="MSShapeGroup"></path>
        </g>
        <g id="Group-2" sketch:type="MSLayerGroup" transform="translate(487.910675, 242.670044)">
            <path d="M82.4847601,41.2423801 C82.4847601,64.0236397 41.2423801,123.72714 41.2423801,123.72714 C41.2423801,123.72714 0,64.0236397 0,41.2423801 C0,18.4662757 18.4662757,0 41.2423801,0 C64.0184845,0 82.4847601,18.4662757 82.4847601,41.2423801" id="Fill-5594" fill="#EF5350" sketch:type="MSShapeGroup"></path>
            <path d="M56.7082726,41.2423801 C56.7082726,49.784708 49.784708,56.7082726 41.2423801,56.7082726 C32.7000521,56.7082726 25.7764875,49.784708 25.7764875,41.2423801 C25.7764875,32.7000521 32.7000521,25.7764875 41.2423801,25.7764875 C49.784708,25.7764875 56.7082726,32.7000521 56.7082726,41.2423801" id="Fill-5595" fill="#FFFFFF" sketch:type="MSShapeGroup"></path>
        </g>
        <g id="Group-2" sketch:type="MSLayerGroup" transform="translate(315.583313, 87.386047)">
            <path d="M82.4847601,41.2423801 C82.4847601,64.0236397 41.2423801,123.72714 41.2423801,123.72714 C41.2423801,123.72714 0,64.0236397 0,41.2423801 C0,18.4662757 18.4662757,0 41.2423801,0 C64.0184845,0 82.4847601,18.4662757 82.4847601,41.2423801" id="Fill-5594" fill="#EF5350" sketch:type="MSShapeGroup"></path>
            <path d="M56.7082726,41.2423801 C56.7082726,49.784708 49.784708,56.7082726 41.2423801,56.7082726 C32.7000521,56.7082726 25.7764875,49.784708 25.7764875,41.2423801 C25.7764875,32.7000521 32.7000521,25.7764875 41.2423801,25.7764875 C49.784708,25.7764875 56.7082726,32.7000521 56.7082726,41.2423801" id="Fill-5595" fill="#FFFFFF" sketch:type="MSShapeGroup"></path>
        </g>
        <g id="Group" sketch:type="MSLayerGroup" transform="translate(627.000000, 401.000000)">
            <path d="M61.4087,51.6631 C60.5197,49.3521 58.6117,47.5841 56.2407,46.8731 L39.9997,43.0001 L32.9997,44.0001 L25.9997,43.0001 L9.7597,46.8731 C7.3877,47.5841 5.4797,49.3521 4.5917,51.6631 L0.9997,61.0001 L32.9997,61.0001 L64.9997,61.0001 L61.4087,51.6631 Z" id="Fill-2881" fill="#FFFFFF" sketch:type="MSShapeGroup"></path>
            <path d="M44.7891,46.8945 L45.0001,46.4725 L45.0001,45.9995 L45.0001,44.1925 L43.0001,43.7145 L43.0001,45.9995 C43.0001,45.9995 41.0001,49.9995 33.0001,49.9995 C25.0001,49.9995 23.0001,45.9995 23.0001,45.9995 L23.0001,43.7145 L21.0001,44.1925 L21.0001,45.9995 L21.0001,46.4725 L21.2111,46.8945 C21.4731,47.4165 24.0231,51.9995 33.0001,51.9995 C41.9771,51.9995 44.5271,47.4165 44.7891,46.8945" id="Fill-2882" fill="#E0E0E0" sketch:type="MSShapeGroup"></path>
            <path d="M33,43 C29.716,41.905 25.841,39.829 23,35.432 L23,46 C23,46 25,50 33,50 C41,50 43,46 43,46 L43,35.432 C40.159,39.829 36.284,41.905 33,43" id="Fill-2883" fill="#F5B1A9" sketch:type="MSShapeGroup"></path>
            <path d="M23,35.4316 L23,45.9996 C23,45.9996 25,49.9996 33,49.9996 L33,42.9996 C29.716,41.9056 25.841,39.8286 23,35.4316" id="Fill-2884" fill="#FFCDD2" sketch:type="MSShapeGroup"></path>
            <path d="M17,26.377 C17.5,46.063 23.036,43.544 24.25,51.438 C24.875,55.5 22,59.652 18,56.99 C19.388,62.534 33.625,60.818 33.625,48.813 C33.625,39.813 21,37 21,30.369 L21,26.377 L17,26.377 Z" id="Fill-2885" fill="#EF5350" sketch:type="MSShapeGroup"></path>
            <path d="M48.4224,27.2891 C47.7984,28.1211 46.9564,28.7281 45.8214,28.9251 C44.7394,32.9601 43.0004,35.8781 41.0004,38.0151 L41.0004,43.2381 L53.3724,46.1881 C51.0114,43.0431 48.4844,37.3291 48.4224,27.2891" id="Fill-2886" fill="#D32F2F" sketch:type="MSShapeGroup"></path>
            <path d="M48.7954,19.2305 C48.7904,19.2915 48.7874,19.3495 48.7824,19.4105 C41.8614,19.4105 36.7964,14.0055 36.8404,4.5285 C36.1144,12.5415 31.4834,19.4515 16.9494,19.4515 C16.9484,19.4335 16.9484,19.4155 16.9484,19.3965 C16.4014,19.8185 16.0004,20.5195 16.0004,21.2225 C16.0004,24.3125 16.8644,28.3525 20.1784,28.9245 C22.6194,38.0265 28.3964,41.4645 33.0004,43.0005 C37.6034,41.4645 43.3804,38.0265 45.8214,28.9245 C49.1354,28.3525 50.0004,24.3125 50.0004,21.2225 C50.0004,20.4145 49.4684,19.6115 48.7954,19.2305" id="Fill-2887" fill="#FFCDD2" sketch:type="MSShapeGroup"></path>
            <path d="M16.9492,19.4512 C16.9492,19.4332 16.9492,19.4152 16.9482,19.3962 C16.4012,19.8182 16.0002,20.5192 16.0002,21.2222 C16.0002,24.3122 16.8642,28.3522 20.1782,28.9252 C22.6192,38.0262 28.3962,41.4652 33.0002,43.0002 L33.0002,14.0772 C30.0072,17.3302 24.9982,19.4512 16.9492,19.4512" id="Fill-2888" fill="#FFECEE" sketch:type="MSShapeGroup"></path>
            <path d="M36.9487,2.0771 C20.9487,-1.9229 16.6547,5.5201 16.9487,19.4511 C31.4837,19.4511 36.1147,12.5411 36.8417,4.5281 C36.7967,14.0061 41.8617,19.4101 48.7827,19.4101 C49.6157,8.8261 48.5327,0.0771 36.9487,2.0771" id="Fill-2889" fill="#D32F2F" sketch:type="MSShapeGroup"></path>
            <path d="M30,21 C30,19.896 29.104,19 28,19 L27.994,19 C27.995,19.021 28,19.042 28,19.063 C28,20.165 27.108,21.059 26.006,21.062 C26.04,22.137 26.917,23 28,23 C29.104,23 30,22.104 30,21" id="Fill-2890" fill="#212121" sketch:type="MSShapeGroup"></path>
            <path d="M39.9937,21 C39.9937,19.896 39.0977,19 37.9937,19 L37.9877,19 C37.9887,19.021 37.9937,19.042 37.9937,19.063 C37.9937,20.165 37.1017,21.059 35.9997,21.062 C36.0327,22.137 36.9107,23 37.9937,23 C39.0977,23 39.9937,22.104 39.9937,21" id="Fill-2891" fill="#212121" sketch:type="MSShapeGroup"></path>
            <path d="M28,32 L38,32 C38,32 38,35 33,35 C28,35 28,32 28,32" id="Fill-2892" fill="#E57373" sketch:type="MSShapeGroup"></path>
            <path d="M33,1.2832 C20.234,-0.5648 16.68,6.7402 16.949,19.4472 C24.998,19.4472 30.007,17.3252 33,14.0722 L33,1.2832 Z" id="Fill-3200" fill="#EF5350" sketch:type="MSShapeGroup"></path>
        </g>
        <g id="Group" sketch:type="MSLayerGroup" transform="translate(671.000000, 280.000000)">
            <path d="M44,45.9971 L42,44.9971 L22,44.9971 L20,45.9971 L20.001,45.9991 L20,46.0001 L20.035,46.0591 L26.192,55.8071 L26.194,55.8061 L32,65.0001 L37.806,55.8061 L37.808,55.8071 L43.965,46.0591 L44,46.0001 L43.999,45.9991 L44,45.9971 Z" id="Fill-1050" fill="#FFFFFF" sketch:type="MSShapeGroup"></path>
            <path d="M34.6548,45.9971 L31.9998,45.9971 L29.3448,45.9971 C28.4888,45.9971 27.6748,45.6331 27.1058,44.9921 L21.9998,40.9971 L21.9998,45.4971 L31.9998,52.9971 L41.9998,45.4971 L41.9998,40.9971 L36.8948,44.9921 C36.3258,45.6331 35.5108,45.9971 34.6548,45.9971" id="Fill-1051" fill="#F5B1A9" sketch:type="MSShapeGroup"></path>
            <path d="M27.1055,44.9922 L22.0005,40.9972 L22.0005,45.4972 L32.0005,52.9972 L32.0005,45.9972 L29.3455,45.9972 C28.4895,45.9972 27.6745,45.6332 27.1055,44.9922" id="Fill-1052" fill="#FFCDD2" sketch:type="MSShapeGroup"></path>
            <path d="M47,23 C46,23 46,24.111 46,24.111 L46,21.807 C42.526,22.538 37.549,23 32,23 C26.451,23 21.474,22.538 18,21.807 L18,30.997 L22,40.997 L27.105,44.992 C27.674,45.633 28.489,45.997 29.345,45.997 L32,45.997 L34.655,45.997 C35.511,45.997 36.326,45.633 36.895,44.992 L42,40.997 L45.207,32.98 C48.042,32.775 49,28.476 49,25.223 C49,24.111 48,23 47,23" id="Fill-1053" fill="#FFCDD2" sketch:type="MSShapeGroup"></path>
            <path d="M18,24.1113 C18,24.1113 18,23.0003 17,23.0003 C16,23.0003 15,24.1113 15,25.2223 C15,28.4753 15.958,32.7753 18.793,32.9803 L22,40.9973 L27.105,44.9923 C27.674,45.6323 28.489,45.9973 29.345,45.9973 L32,45.9973 L32,23.0003 C26.451,23.0003 21.474,22.5383 18,21.8063 L18,24.1113 Z" id="Fill-1054" fill="#FFECEE" sketch:type="MSShapeGroup"></path>
            <path d="M29,24.9961 C29,23.8921 28.104,22.9961 27,22.9961 C26.998,22.9961 26.996,22.9981 26.994,22.9981 C26.995,23.0181 27,23.0391 27,23.0591 C27,24.1621 26.108,25.0561 25.006,25.0581 C25.04,26.1351 25.917,26.9961 27,26.9961 C28.104,26.9961 29,26.1011 29,24.9961" id="Fill-1055" fill="#212121" sketch:type="MSShapeGroup"></path>
            <path d="M38.9937,24.9961 C38.9937,23.8921 38.0977,22.9961 36.9937,22.9961 C36.9917,22.9961 36.9897,22.9981 36.9877,22.9981 C36.9887,23.0181 36.9937,23.0391 36.9937,23.0591 C36.9937,24.1621 36.1017,25.0561 34.9997,25.0581 C35.0337,26.1351 35.9107,26.9961 36.9937,26.9961 C38.0977,26.9961 38.9937,26.1011 38.9937,24.9961" id="Fill-1056" fill="#212121" sketch:type="MSShapeGroup"></path>
            <path d="M27,34.9961 L37,34.9961 C37,34.9961 37,37.9961 32,37.9961 C27,37.9961 27,34.9961 27,34.9961" id="Fill-1057" fill="#E57373" sketch:type="MSShapeGroup"></path>
            <path d="M17,19 L17,21 C17,21 18,28 19,30 L20,30 L20,19 L17,19 Z" id="Fill-1058" fill="#FFFFFF" sketch:type="MSShapeGroup"></path>
            <path d="M47,20 L47,21 C47,21 46,28 45,30 L44,30 L44,20 L47,20 Z" id="Fill-1059" fill="#FFFFFF" sketch:type="MSShapeGroup"></path>
            <path d="M47,17.0879 L47,14.7499 C47,11.6399 47.921,6.4179 48.513,3.3829 C48.627,2.7969 48.472,2.1899 48.092,1.7289 C47.711,1.2679 47.146,0.9999 46.548,0.9999 L32,0.9999 L17.452,0.9999 C16.854,0.9999 16.289,1.2679 15.908,1.7289 C15.528,2.1899 15.373,2.7969 15.487,3.3829 C16.079,6.4179 17,11.6399 17,14.7499 L17,17.0879 C14.502,17.7089 13,18.4859 13,19.3339 C13,21.3589 21.507,22.9999 32,22.9999 C42.493,22.9999 51,21.3589 51,19.3339 C51,18.4859 49.498,17.7089 47,17.0879" id="Fill-1060" fill="#212121" sketch:type="MSShapeGroup"></path>
            <path d="M17,14.75 L17,15 L32,15 L32,1 L17.452,1 C16.854,1 16.289,1.268 15.908,1.729 C15.528,2.189 15.373,2.797 15.487,3.383 C16.079,6.418 17,11.64 17,14.75" id="Fill-1061" fill="#545454" sketch:type="MSShapeGroup"></path>
            <path d="M32,14 C26.12,14 20.812,13.91 17,13.23 L17,16.896 C20.812,17.577 26.12,17.666 32,17.666 L32,14 Z" id="Fill-1062" fill="#FFFFFF" sketch:type="MSShapeGroup"></path>
            <path d="M32,14 C37.88,14 43.188,13.91 47,13.23 L47,16.896 C43.188,17.577 37.88,17.666 32,17.666 L32,14 Z" id="Fill-1063" fill="#E0E0E0" sketch:type="MSShapeGroup"></path>
            <path d="M0,65 L4,54 C4.615,52.667 5.698,51.605 7.042,51.018 L20,46 L32,65 L0,65 Z" id="Fill-1064" fill="#212121" sketch:type="MSShapeGroup"></path>
            <path d="M64,65 L60,54 C59.385,52.667 58.302,51.605 56.957,51.018 L44,46 L32,65 L64,65 Z" id="Fill-1065" fill="#212121" sketch:type="MSShapeGroup"></path>
            <path d="M32,65 L22,44 L18,46 L16,53 L22.333,53 L19,57 L28,65 L32,65 Z" id="Fill-1066" fill="#545454" sketch:type="MSShapeGroup"></path>
            <path d="M27,34.9961 L37,34.9961 C37,34.9961 37,37.9961 32,37.9961 C27,37.9961 27,34.9961 27,34.9961" id="Fill-1067" fill="#E57373" sketch:type="MSShapeGroup"></path>
            <path d="M32,65 L42,44 L46,46 L48,53 L41.667,53 L45,57 L36,65 L32,65 Z" id="Fill-1068" fill="#545454" sketch:type="MSShapeGroup"></path>
            <path d="M34,55 L23,50 L23,60 L34,55 Z" id="Fill-1069" fill="#D32F2F" sketch:type="MSShapeGroup"></path>
            <path d="M30,55 L41,50 L41,60 L30,55 Z" id="Fill-1070" fill="#D32F2F" sketch:type="MSShapeGroup"></path>
            <path d="M35,55 C35,56.656 33.657,58 32,58 C30.343,58 29,56.656 29,55 C29,53.344 30.343,52 32,52 C33.657,52 35,53.344 35,55" id="Fill-1071" fill="#D32F2F" sketch:type="MSShapeGroup"></path>
            <path d="M31.9355,33.4844 C29.9355,30.4844 24.9355,32.4844 22.9355,35.4844 L31.9355,35.4844 L31.9355,33.4844 Z" id="Fill-1072" fill="#FFFFFF" sketch:type="MSShapeGroup"></path>
            <path d="M31.9355,33.4844 C33.9355,30.4844 38.9355,32.4844 40.9355,35.4844 L31.9355,35.4844 L31.9355,33.4844 Z" id="Fill-1073" fill="#FFFFFF" sketch:type="MSShapeGroup"></path>
            <path d="M52.4917,36.8945 C50.0917,36.4145 34.8417,33.3655 34.2537,36.3065 C33.6657,39.2495 49.2567,42.3675 51.8067,42.8745 C53.1597,43.1465 54.5207,42.0485 54.8457,40.4235 C55.4867,37.2205 52.4917,36.8945 52.4917,36.8945" id="Fill-1074" fill="#733724" sketch:type="MSShapeGroup"></path>
            <path d="M54.8457,40.4238 C54.5207,42.0488 53.3797,43.1908 52.2967,42.9738 C51.2137,42.7578 50.5987,41.2658 50.9237,39.6408 C51.2487,38.0158 52.3897,36.8728 53.4727,37.0898 C54.5557,37.3068 55.1707,38.7988 54.8457,40.4238" id="Fill-1075" fill="#EF5350" sketch:type="MSShapeGroup"></path>
        </g>
        <g id="Group" sketch:type="MSLayerGroup" transform="translate(660.000000, 169.000000)">
            <path d="M32,59 L20,39.996 L44,39.996 L32,59 Z" id="Fill-1476" fill="#F0F0F0" sketch:type="MSShapeGroup"></path>
            <path d="M34.6548,39.9971 L31.9998,39.9971 L29.3448,39.9971 C28.4898,39.9971 27.6748,39.6331 27.1058,38.9921 L21.9998,34.9971 L21.9998,39.4971 C21.9998,39.4971 21.9998,46.9971 31.9998,46.9971 C41.9998,46.9971 41.9998,39.4971 41.9998,39.4971 L41.9998,34.9971 L36.8948,38.9921 C36.3258,39.6331 35.5108,39.9971 34.6548,39.9971" id="Fill-1477" fill="#8F4D37" sketch:type="MSShapeGroup"></path>
            <path d="M27.1055,38.9922 L21.9995,34.9972 L21.9995,39.4972 C21.9995,39.4972 21.9995,46.9972 31.9995,46.9972 L31.9995,39.9972 L29.3455,39.9972 C28.4895,39.9972 27.6745,39.6332 27.1055,38.9922" id="Fill-1478" fill="#A16D5A" sketch:type="MSShapeGroup"></path>
            <path d="M49,19.2227 C49,18.1117 48,16.9997 47,16.9997 C46,16.9997 46,18.1117 46,18.1117 L46,16.9997 C45.982,7.9997 44.976,1.9997 32,1.9997 C19.024,1.9997 18.018,7.9997 18,16.9997 L18,24.9967 L22,34.9967 L27.106,38.9927 C27.674,39.6327 28.489,39.9967 29.345,39.9967 L32,39.9967 L34.655,39.9967 C35.511,39.9967 36.326,39.6327 36.894,38.9927 L42,34.9967 L45.206,26.9807 C48.042,26.7757 49,22.4757 49,19.2227" id="Fill-1479" fill="#A16D5A" sketch:type="MSShapeGroup"></path>
            <path d="M18,17 L18,18.111 C18,18.111 18,17 17,17 C16,17 15,18.111 15,19.223 C15,22.476 15.958,26.775 18.794,26.98 L22,34.997 L27.106,38.992 C27.674,39.633 28.489,39.997 29.345,39.997 L32,39.997 L32,2 C19.024,2 18.018,8 18,17" id="Fill-1480" fill="#BD8B7B" sketch:type="MSShapeGroup"></path>
            <path d="M29,18.9961 C29,17.8921 28.104,16.9961 27,16.9961 C26.998,16.9961 26.996,16.9981 26.994,16.9981 C26.995,17.0181 27,17.0391 27,17.0591 C27,18.1621 26.108,19.0561 25.006,19.0581 C25.04,20.1351 25.917,20.9961 27,20.9961 C28.104,20.9961 29,20.1011 29,18.9961" id="Fill-1481" fill="#212121" sketch:type="MSShapeGroup"></path>
            <path d="M38.9937,18.9961 C38.9937,17.8921 38.0977,16.9961 36.9937,16.9961 C36.9917,16.9961 36.9897,16.9981 36.9877,16.9981 C36.9887,17.0181 36.9937,17.0391 36.9937,17.0591 C36.9937,18.1621 36.1017,19.0561 34.9997,19.0581 C35.0327,20.1351 35.9107,20.9961 36.9937,20.9961 C38.0977,20.9961 38.9937,20.1011 38.9937,18.9961" id="Fill-1482" fill="#212121" sketch:type="MSShapeGroup"></path>
            <path d="M27,28.9961 L37,28.9961 C37,28.9961 37,31.9961 32,31.9961 C27,31.9961 27,28.9961 27,28.9961" id="Fill-1483" fill="#733724" sketch:type="MSShapeGroup"></path>
            <path d="M31.8213,1 C19.8213,1 17.0003,8.111 18.0003,18.111 L18.8213,19 C18.8213,1 22.8213,7 31.8213,7 C40.8213,7 44.8213,1 44.8213,19 L46.0003,18.111 C47.0003,8.111 43.8213,1 31.8213,1" id="Fill-1484" fill="#5C1700" sketch:type="MSShapeGroup"></path>
            <path d="M32,1.0068 C31.938,1.0058 31.884,0.9998 31.821,0.9998 C19.821,0.9998 17,8.1108 18,18.1108 L18.821,18.9998 C18.821,0.9998 22.821,6.9998 31.821,6.9998 C31.882,6.9998 31.94,6.9968 32,6.9968 L32,1.0068 Z" id="Fill-1485" fill="#733724" sketch:type="MSShapeGroup"></path>
            <path d="M20,39.9961 L22,38.9961 L31.985,43.9781 L26,49.9961 L20,39.9961 Z" id="Fill-1486" fill="#FFFFFF" sketch:type="MSShapeGroup"></path>
            <path d="M44,39.9961 L42,38.9961 L32.015,43.9781 L38,49.9961 L44,39.9961 Z" id="Fill-1487" fill="#FFFFFF" sketch:type="MSShapeGroup"></path>
            <path d="M36,59 L33.201,48.801 L35,47.002 L31.981,43.979 L28.983,46.977 L30.801,48.794 L28,59 L36,59 Z" id="Fill-1488" fill="#26A69A" sketch:type="MSShapeGroup"></path>
            <path d="M32,59 L32,43.997 L31.981,43.979 L28.983,46.977 L30.801,48.794 L28,59 L32,59 Z" id="Fill-1489" fill="#4DB6AC" sketch:type="MSShapeGroup"></path>
            <path d="M0,59 L4,48 C4.615,46.667 5.698,45.605 7.042,45.018 L20,40 L32,59 L0,59 Z" id="Fill-1490" fill="#212121" sketch:type="MSShapeGroup"></path>
            <path d="M64,59 L60,48 C59.385,46.667 58.302,45.605 56.956,45.018 L44,40 L32,59 L64,59 Z" id="Fill-1491" fill="#212121" sketch:type="MSShapeGroup"></path>
            <path d="M53,53.996 L43,53.996 L43,51.996 L53,51.996 L53,53.996 Z" id="Fill-1492" fill="#FFFFFF" sketch:type="MSShapeGroup"></path>
        </g>
        <g id="Group" sketch:type="MSLayerGroup" transform="translate(596.000000, 49.000000)">
            <path d="M44,44.9971 L42,43.9971 L22,43.9971 L20,44.9971 L32,64.0001 L44,44.9971 Z" id="Fill-2683" fill="#E0E0E0" sketch:type="MSShapeGroup"></path>
            <path d="M47,22 C46,22 46,23.111 46,23.111 L46,22 C45.998,20.936 45.981,19.914 45.933,18.937 C41.891,15.002 32,15 32,15 C32,15 22.109,15.002 18.067,18.937 C18.019,19.914 18.002,20.936 18,22 L18,29.997 L22,39.997 L27.105,43.993 C27.674,44.632 28.489,44.997 29.345,44.997 L32,44.997 L34.655,44.997 C35.511,44.997 36.326,44.632 36.895,43.993 L42,39.997 L45.207,31.98 C48.042,31.776 49,27.476 49,24.223 C49,23.111 48,22 47,22" id="Fill-2684" fill="#F9E1C2" sketch:type="MSShapeGroup"></path>
            <path d="M18,22 L18,23.111 C18,23.111 18,22 17,22 C16,22 15,23.111 15,24.223 C15,27.476 15.958,31.776 18.793,31.98 L22,39.997 L27.105,43.993 C27.674,44.632 28.489,44.997 29.345,44.997 L32,44.997 L32,15 C32,15 22.109,15.002 18.067,18.937 C18.019,19.914 18.002,20.936 18,22" id="Fill-2685" fill="#FCF1E2" sketch:type="MSShapeGroup"></path>
            <path d="M27,33.9971 L37,33.9971 C37,33.9971 37,36.9971 32,36.9971 C27,36.9971 27,33.9971 27,33.9971" id="Fill-2686" fill="#E57373" sketch:type="MSShapeGroup"></path>
            <path d="M38,24.3218 C39.191,24.3218 40.248,24.5878 40.981,24.9998 C41.052,24.4308 40.809,23.8458 40.233,23.4098 C39.203,22.6288 37.531,22.6288 36.5,23.4098 C36.036,23.7618 35.791,24.2108 35.747,24.6698 C36.389,24.4508 37.164,24.3218 38,24.3218" id="Fill-2687" fill="#212121" sketch:type="MSShapeGroup"></path>
            <path d="M25.9927,24.3218 C24.8017,24.3218 23.7447,24.5878 23.0117,24.9998 C22.9417,24.4308 23.1837,23.8458 23.7607,23.4098 C24.7907,22.6288 26.4627,22.6288 27.4927,23.4098 C27.9577,23.7618 28.2027,24.2108 28.2457,24.6698 C27.6037,24.4508 26.8287,24.3218 25.9927,24.3218" id="Fill-2688" fill="#212121" sketch:type="MSShapeGroup"></path>
            <path d="M34.6548,44.9971 L31.9998,44.9971 L29.3448,44.9971 C28.4888,44.9971 27.6748,44.6321 27.1058,43.9931 L21.9998,39.9971 L21.9998,44.4971 C21.9998,44.4971 21.9998,51.9971 31.9998,51.9971 C41.9998,51.9971 41.9998,44.4971 41.9998,44.4971 L41.9998,39.9971 L36.8948,43.9931 C36.3258,44.6321 35.5108,44.9971 34.6548,44.9971" id="Fill-2689" fill="#F4D0A1" sketch:type="MSShapeGroup"></path>
            <path d="M32,15 C32,15 31.242,15 30.063,15.083 L30.063,20.708 C33.781,20.708 36.034,18.024 37.337,15.474 C34.41,15.001 32,15 32,15" id="Fill-2690" fill="#212121" sketch:type="MSShapeGroup"></path>
            <path d="M22.9189,16.3315 C21.0229,16.9215 19.2279,17.7715 17.9999,18.9995 C17.9999,22.5415 20.3229,24.2495 20.3229,24.2495 C20.0289,21.2935 20.0129,19.3685 22.9189,16.3315" id="Fill-2691" fill="#212121" sketch:type="MSShapeGroup"></path>
            <path d="M23.8647,16.0615 L23.8647,20.7085 C26.7297,20.7085 29.0137,16.6545 29.7827,15.1045 C28.2187,15.2265 26.0267,15.4905 23.8647,16.0615" id="Fill-2692" fill="#212121" sketch:type="MSShapeGroup"></path>
            <path d="M43.3438,17.2051 L43.3438,24.2501 C45.8318,24.2501 45.9898,19.5901 45.9988,18.9991 C45.2788,18.2781 44.3608,17.6901 43.3438,17.2051" id="Fill-2693" fill="#212121" sketch:type="MSShapeGroup"></path>
            <path d="M38.9165,15.7705 L38.9165,20.7085 C42.2705,20.7085 43.2415,17.5375 43.3345,17.2005 C41.9675,16.5505 40.4205,16.0925 38.9165,15.7705" id="Fill-2694" fill="#212121" sketch:type="MSShapeGroup"></path>
            <path d="M27.1055,43.9927 L22.0005,39.9967 L22.0005,44.4967 C22.0005,44.4967 22.0005,51.9967 32.0005,51.9967 L32.0005,44.9967 L29.3455,44.9967 C28.4895,44.9967 27.6745,44.6327 27.1055,43.9927" id="Fill-2695" fill="#F9E1C2" sketch:type="MSShapeGroup"></path>
            <path d="M11.4912,30.4453 L11.4912,10.8253 C10.7942,10.5773 10.1222,10.3333 9.4912,10.0973 L9.4912,30.4453 C6.8812,32.1643 8.4912,37.2953 8.4912,40.0003 L10.3322,40.0003 L10.4912,40.0003 L10.6492,40.0003 L12.4912,40.0003 C12.4912,37.2953 14.1012,32.1643 11.4912,30.4453" id="Fill-2696" fill="#EF5350" sketch:type="MSShapeGroup"></path>
            <path d="M59,8 C59,7 34,0 32,0 C30,0 5,7 5,8 C5,8.625 12.432,11.207 18,13.053 L18,19 C22,15 32,15 32,15 C32,15 42,15 46,19 L46,13.053 C51.568,11.207 59,8.625 59,8" id="Fill-2697" fill="#212121" sketch:type="MSShapeGroup"></path>
            <path d="M43.9648,45.0586 L43.9998,44.9996 L41.9998,43.9996 L32.0148,48.9806 L37.8078,54.8066 L43.9648,45.0586 Z" id="Fill-2698" fill="#FFFFFF" sketch:type="MSShapeGroup"></path>
            <path d="M36,64 L33.201,53.8 L35,52.002 L31.981,48.978 L28.983,51.976 L30.801,53.794 L28,64 L36,64 Z" id="Fill-2699" fill="#D32F2F" sketch:type="MSShapeGroup"></path>
            <path d="M32,64 L32,48.997 L31.981,48.978 L28.983,51.976 L30.801,53.794 L28,64 L32,64 Z" id="Fill-2700" fill="#EF5350" sketch:type="MSShapeGroup"></path>
            <path d="M20.0352,45.0586 L20.0002,44.9996 L22.0002,43.9996 L31.9852,48.9806 L26.1922,54.8066 L20.0352,45.0586 Z" id="Fill-2701" fill="#FFFFFF" sketch:type="MSShapeGroup"></path>
            <path d="M0,64 L4,53 C4.615,51.667 5.698,50.606 7.042,50.018 L20,45 L32,64 L0,64 Z" id="Fill-2702" fill="#212121" sketch:type="MSShapeGroup"></path>
            <path d="M64,64 L60,53 C59.385,51.667 58.302,50.606 56.957,50.018 L44,45 L32,64 L64,64 Z" id="Fill-2703" fill="#212121" sketch:type="MSShapeGroup"></path>
            <path d="M32,64 L20,45 L11,48 L28,64 L32,64 Z" id="Fill-2704" fill="#979797" sketch:type="MSShapeGroup"></path>
            <path d="M32,64 L44,45 L53,48 L36,64 L32,64 Z" id="Fill-2705" fill="#979797" sketch:type="MSShapeGroup"></path>
        </g>
        <g id="Group" sketch:type="MSLayerGroup" transform="translate(178.000000, 398.000000)">
            <path d="M32.002,64 L64,64 L60,53 C59.385,51.667 58.303,50.606 56.957,50.018 L44,45 L42,44 L32,52.003 L22,44 L20,45 L7.043,50.018 C5.697,50.606 4.615,51.667 4,53 L0,64 L31.998,64 L32,64.003 L32.002,64 Z" id="Fill-2539" fill="#FFFFFF" sketch:type="MSShapeGroup"></path>
            <path d="M52,58 L52,48.003 L47,46.003 L47,55 L17,55 L17,46.003 L12,48.003 L12,58 L10,64.003 L54,64.003 L52,58 Z" id="Fill-2540" fill="#1465C0" sketch:type="MSShapeGroup"></path>
            <path d="M44,64 L20,64 L20,60 L44,60 L44,64 Z" id="Fill-2541" fill="#42A5F6" sketch:type="MSShapeGroup"></path>
            <path d="M34.6543,44.9976 L32.0003,44.9976 L29.3453,44.9976 C28.4893,44.9976 27.6743,44.6326 27.1053,43.9936 L22.0003,39.9976 L22.0003,44.4976 C22.0003,44.4976 22.0003,51.9976 32.0003,51.9976 C42.0003,51.9976 42.0003,44.4976 42.0003,44.4976 L42.0003,39.9976 L36.8943,43.9936 C36.3263,44.6326 35.5103,44.9976 34.6543,44.9976" id="Fill-2542" fill="#F5B1A9" sketch:type="MSShapeGroup"></path>
            <path d="M27.1055,43.9956 L22.0005,39.9996 L22.0005,44.4996 C22.0005,44.4996 22.0005,51.9996 32.0005,51.9996 L32.0005,44.9996 L29.3455,44.9996 C28.4895,44.9996 27.6735,44.6346 27.1055,43.9956" id="Fill-2543" fill="#FFCDD2" sketch:type="MSShapeGroup"></path>
            <path d="M49,24.2231 C49,23.1111 48,22.0001 47,22.0001 C46,22.0001 46,23.1111 46,23.1111 L46,22.0001 C45.996,19.8561 45.933,17.8851 45.668,16.1221 C42.103,17.5571 36.437,18.0001 32,18.0001 C27.562,18.0001 21.896,17.5571 18.332,16.1221 C18.067,17.8851 18.004,19.8561 18,22.0001 L18,29.9971 L22,39.9971 L27.105,43.9931 C27.674,44.6321 28.489,44.9971 29.346,44.9971 L32,44.9971 L34.654,44.9971 C35.511,44.9971 36.326,44.6321 36.895,43.9931 L42,39.9971 L45.207,31.9801 C48.041,31.7761 49,27.4751 49,24.2231" id="Fill-2544" fill="#FFCDD2" sketch:type="MSShapeGroup"></path>
            <path d="M18,22 L18,23.111 C18,23.111 18,22 17,22 C16,22 15,23.111 15,24.223 C15,27.476 15.957,31.776 18.793,31.98 L22,39.998 L27.105,43.993 C27.674,44.632 28.489,44.998 29.346,44.998 L32,44.998 L32,18 C27.562,18 21.896,17.558 18.332,16.123 C18.067,17.885 18.004,19.856 18,22" id="Fill-2545" fill="#FFECEE" sketch:type="MSShapeGroup"></path>
            <path d="M27,33.9976 L37,33.9976 C37,33.9976 37,36.9976 32,36.9976 C27,36.9976 27,33.9976 27,33.9976" id="Fill-2546" fill="#E57373" sketch:type="MSShapeGroup"></path>
            <path d="M28.9941,24.0371 C28.9941,22.9321 28.0981,22.0371 26.9941,22.0371 L26.9871,22.0371 C26.9881,22.0581 26.9941,22.0781 26.9941,22.0991 C26.9941,23.2021 26.1011,24.0951 25.0001,24.0991 C25.0331,25.1741 25.9101,26.0371 26.9941,26.0371 C28.0981,26.0371 28.9941,25.1411 28.9941,24.0371" id="Fill-2547" fill="#212121" sketch:type="MSShapeGroup"></path>
            <path d="M38.9873,24.0371 C38.9873,22.9321 38.0913,22.0371 36.9873,22.0371 L36.9803,22.0371 C36.9823,22.0581 36.9873,22.0781 36.9873,22.0991 C36.9873,23.2021 36.0953,24.0951 34.9943,24.0991 C35.0273,25.1741 35.9043,26.0371 36.9873,26.0371 C38.0913,26.0371 38.9873,25.1411 38.9873,24.0371" id="Fill-2548" fill="#212121" sketch:type="MSShapeGroup"></path>
            <path d="M24,34 L32,34 C32,29.452 26,30.21 24,34" id="Fill-2549" fill="#733724" sketch:type="MSShapeGroup"></path>
            <path d="M40,34 L32,34 C32,29.452 38,30.21 40,34" id="Fill-2550" fill="#733724" sketch:type="MSShapeGroup"></path>
            <path d="M43.3691,21.3501 C44.5001,25.9001 44.0001,32.0201 44.0001,33.0001 L45.0001,33.0001 L46.0001,31.0001 C46.0001,30.1601 46.5551,24.5601 46.8381,20.8631 C45.7461,21.0441 44.5861,21.2061 43.3691,21.3501" id="Fill-2551" fill="#733724" sketch:type="MSShapeGroup"></path>
            <path d="M20.6309,21.3501 C19.4139,21.2061 18.2539,21.0441 17.1619,20.8631 C17.4449,24.5601 17.9999,30.1601 17.9999,31.0001 L18.9999,33.0001 L19.9999,33.0001 C19.9999,32.0201 19.4999,25.9001 20.6309,21.3501" id="Fill-2552" fill="#733724" sketch:type="MSShapeGroup"></path>
            <path d="M57,17 C57,19.21 45.807,22 32,22 C18.193,22 7,19.21 7,17 C7,14.791 18.193,13 32,13 C45.807,13 57,14.791 57,17" id="Fill-2553" fill="#F4D0A1" sketch:type="MSShapeGroup"></path>
            <path d="M46,12 C46.04,4.953 39.871,0 32,0 C24.129,0 17.96,4.953 18,12 C18.009,13.582 18,14 18,16 C21.538,17.54 27.43,18 32,18 C36.57,18 42.462,17.54 46,16 C46,14 45.991,13.582 46,12" id="Fill-2554" fill="#F9E1C2" sketch:type="MSShapeGroup"></path>
            <path d="M7,17 C7,19.209 18.193,22 32,22 L32,13 C18.193,13 7,14.791 7,17" id="Fill-2555" fill="#F9E1C2" sketch:type="MSShapeGroup"></path>
            <path d="M18,12 C18.009,13.582 18,14 18,16 C21.538,17.54 27.43,18 32,18 L32,0 C24.129,0 17.96,4.953 18,12" id="Fill-2556" fill="#FCF1E2" sketch:type="MSShapeGroup"></path>
            <path d="M44,45 L42,43 L32,52 L39,57 L44,45 Z" id="Fill-2557" fill="#E0E0E0" sketch:type="MSShapeGroup"></path>
            <path d="M20,45 L22,43 L32,52 L25,57 L20,45 Z" id="Fill-2558" fill="#E0E0E0" sketch:type="MSShapeGroup"></path>
        </g>
        <g id="Group" sketch:type="MSLayerGroup" transform="translate(128.000000, 282.000000)">
            <path d="M48.9985,15.731 L48.9415,15.745 C48.9645,16.429 48.4185,17 47.7325,17 L44.0005,17 L43.7645,21.588 L45.0005,29 L47.0005,21 L48.0005,21 C49.0005,21 50.0005,22.111 50.0005,23.223 C50.0005,26.313 49.1355,30.353 45.8215,30.925 C45.1115,33.575 44.1125,35.732 42.9475,37.515 L42.5125,46 L43.0005,46 L53.8605,48.356 L48.9985,15.731 Z" id="Fill-1305" fill="#FB8C00" sketch:type="MSShapeGroup"></path>
            <path d="M48,21 L47,21 L45,29 L43.946,22.677 C43.661,22.656 43.34,22.557 42.973,22.356 C41.733,21.675 37.973,19.356 32.973,19.356 C27.973,19.356 24.213,21.675 22.973,22.356 C22.628,22.544 22.327,22.637 22.056,22.665 L21,29 L19,21 L18,21 C17,21 16,22.111 16,23.223 C16,26.313 16.864,30.353 20.178,30.925 C22.62,40.027 28.396,43.465 33,45 C37.604,43.465 43.38,40.027 45.822,30.925 C49.136,30.353 50,26.313 50,23.223 C50,22.111 49,21 48,21" id="Fill-1306" fill="#FFCDD2" sketch:type="MSShapeGroup"></path>
            <path d="M61.4087,53.6631 C60.5197,51.3521 58.6117,49.5831 56.2407,48.8721 L42.9997,46.0001 L32.9997,46.0001 L22.9997,46.0001 L9.7597,48.8721 C7.3877,49.5831 5.4797,51.3521 4.5917,53.6631 L0.9997,63.0001 L32.9997,63.0001 L64.9997,63.0001 L61.4087,53.6631 Z" id="Fill-1307" fill="#212121" sketch:type="MSShapeGroup"></path>
            <path d="M33,45 L33,63 L35,63 L43,46 L43,37.433 C40.159,41.829 36.284,43.905 33,45" id="Fill-1308" fill="#F5B1A9" sketch:type="MSShapeGroup"></path>
            <path d="M23,37.4331 L23,46.0001 L31,63.0001 L33,63.0001 L33,45.0001 C29.716,43.9051 25.841,41.8291 23,37.4331" id="Fill-1309" fill="#FFCDD2" sketch:type="MSShapeGroup"></path>
            <path d="M20.1782,30.9253 C16.8642,30.3523 16.0002,26.3133 16.0002,23.2233 C16.0002,22.1113 17.0002,21.0003 18.0002,21.0003 L19.0002,21.0003 L21.0002,29.0003 L22.2352,21.5883 L22.0002,17.0003 L18.2132,17.0003 C17.5212,17.0003 16.9702,16.4223 17.0012,15.7313 L12.1392,48.3563 L23.0002,46.0003 L23.4872,46.0003 L23.0522,37.5143 C21.8872,35.7323 20.8882,33.5743 20.1782,30.9253" id="Fill-1310" fill="#FB8C00" sketch:type="MSShapeGroup"></path>
            <path d="M32.9727,19.356 C27.9727,19.356 24.2127,21.675 22.9727,22.356 C22.6277,22.544 22.3267,22.637 22.0557,22.665 L20.9997,29 L18.9997,21 L17.9997,21 C16.9997,21 15.9997,22.111 15.9997,23.223 C15.9997,26.313 16.8647,30.353 20.1787,30.925 C22.6197,40.027 28.3967,43.465 32.9997,45 L32.9997,19.356 L32.9727,19.356" id="Fill-1311" fill="#FFECEE" sketch:type="MSShapeGroup"></path>
            <path d="M53.5527,58.106 C53.2137,57.428 52.5217,57 51.7647,57 L49.6667,57 L47.9997,47 L43.9997,46 L44.8467,57 L32.9997,57 L21.1537,57 L21.9997,46 L17.9997,47 L16.3337,57 L14.2367,57 C13.4787,57 12.7857,57.428 12.4477,58.106 L9.9997,63 L32.9997,63 L55.9997,63 L53.5527,58.106 Z" id="Fill-1312" fill="#00897B" sketch:type="MSShapeGroup"></path>
            <path d="M34.9565,1.0781 C34.9605,1.0521 34.9725,1.0271 34.9725,1.0001 C34.9725,0.4481 34.0775,9.99999997e-05 32.9725,9.99999997e-05 C31.8685,9.99999997e-05 30.9725,0.4481 30.9725,1.0001 C30.9725,1.0271 30.9845,1.0521 30.9885,1.0781 C25.2105,1.5311 17.5265,4.2551 17.0015,15.7311 C16.9695,16.4221 17.5215,17.0001 18.2125,17.0001 L32.9725,17.0001 L47.7325,17.0001 C48.4235,17.0001 48.9765,16.4221 48.9445,15.7311 C48.4185,4.2551 40.7355,1.5311 34.9565,1.0781" id="Fill-1313" fill="#212121" sketch:type="MSShapeGroup"></path>
            <path d="M28,34 L38,34 C38,34 38,37 33,37 C28,37 28,34 28,34" id="Fill-1314" fill="#E57373" sketch:type="MSShapeGroup"></path>
            <path d="M30.0063,23 C30.0063,21.896 29.1103,21 28.0063,21 L28.0003,21 C28.0003,21.022 28.0063,21.042 28.0063,21.063 C28.0063,22.165 27.1143,23.059 26.0123,23.062 C26.0463,24.137 26.9233,25 28.0063,25 C29.1103,25 30.0063,24.104 30.0063,23" id="Fill-1315" fill="#212121" sketch:type="MSShapeGroup"></path>
            <path d="M40,23 C40,21.896 39.104,21 38,21 L37.994,21 C37.995,21.022 38,21.042 38,21.063 C38,22.165 37.108,23.059 36.006,23.062 C36.04,24.137 36.917,25 38,25 C39.104,25 40,24.104 40,23" id="Fill-1316" fill="#212121" sketch:type="MSShapeGroup"></path>
            <path d="M33,12 C31.346,12 30,10.654 30,9 C30,7.346 31.346,6 33,6 C34.654,6 36,7.346 36,9 C36,10.654 34.654,12 33,12" id="Fill-1317" fill="#26A69A" sketch:type="MSShapeGroup"></path>
            <path d="M33,5 C30.794,5 29,6.794 29,9 C29,11.206 30.794,13 33,13 C35.206,13 37,11.206 37,9 C37,6.794 35.206,5 33,5 M33,6 C34.657,6 36,7.343 36,9 C36,10.657 34.657,12 33,12 C31.343,12 30,10.657 30,9 C30,7.343 31.343,6 33,6" id="Fill-1318" fill="#FFFFFF" sketch:type="MSShapeGroup"></path>
            <path d="M32.9727,14.356 C24.8037,14.419 18.8037,17.066 18.9727,17 C19.9727,19 19.9727,24 22.9727,22.356 C24.2127,21.675 27.9727,19.356 32.9727,19.356 C37.9727,19.356 41.7327,21.675 42.9727,22.356 C45.9727,24 45.9727,19 46.9727,17 C47.1417,17.066 41.1417,14.419 32.9727,14.356" id="Fill-1319" fill="#545454" sketch:type="MSShapeGroup"></path>
        </g>
        <g id="Group" sketch:type="MSLayerGroup" transform="translate(134.000000, 163.000000)">
            <path d="M49.6328,49.2964 C47.6338,43.1694 47.6228,35.4804 47.8038,31.3414 C47.2688,31.8184 46.6168,32.1594 45.8218,32.2964 C44.5988,36.8564 42.5388,39.9934 40.2088,42.1834 C40.3448,43.8584 40.6298,45.5894 41.1338,47.2704 L49.6328,49.2964 Z" id="Fill-2177" fill="#212121" sketch:type="MSShapeGroup"></path>
            <path d="M61.4087,55.6636 C60.5197,53.3526 58.6117,51.5836 56.2407,50.8716 L39.9997,46.9996 L32.9997,47.9996 L25.9997,46.9996 L9.7597,50.8716 C7.3877,51.5836 5.4797,53.3526 4.5917,55.6636 L0.9997,64.9996 L32.9997,64.9996 L64.9997,64.9996 L61.4087,55.6636 Z" id="Fill-2178" fill="#E57373" sketch:type="MSShapeGroup"></path>
            <path d="M43,45 L43,38.804 C40.159,43.2 36.284,45.276 33,46.372 C29.719,45.277 25.842,43.214 23,38.827 L23,45 C23,46 27.465,60.849 33,65 C38.536,60.849 43,46 43,45" id="Fill-2179" fill="#F4D0A1" sketch:type="MSShapeGroup"></path>
            <path d="M48,22.3716 L47,22.3716 L47,22.3506 C46.982,13.3416 45.976,5.3716 33,5.3716 C20.024,5.3716 19.018,13.3416 19,22.3506 C19,39.1486 27,44.3716 33,46.3716 C37.604,44.8366 43.38,41.3976 45.822,32.2966 C49.136,31.7236 50,27.6836 50,24.5936 C50,23.4826 49,22.3716 48,22.3716" id="Fill-2180" fill="#F9E1C2" sketch:type="MSShapeGroup"></path>
            <path d="M33,5.3716 C20.024,5.3716 19.018,13.3426 19,22.3506 C19,39.1476 27,44.3716 33,46.3716 L33,5.3716 Z" id="Fill-2181" fill="#FCF1E2" sketch:type="MSShapeGroup"></path>
            <path d="M39,5.3716 C40,19.3716 43,22.3506 48,22.3716 C48.04,16.3516 51.669,4.6926 39,5.3716" id="Fill-2182" fill="#212121" sketch:type="MSShapeGroup"></path>
            <path d="M26.9639,23.8667 C28.3949,23.8667 29.5909,24.1437 29.9229,24.9997 C29.9269,23.9997 28.9189,22.5537 26.9639,22.5537 C25.0109,22.5537 23.9119,23.9997 24.0049,24.9997 C24.3369,24.1437 25.5339,23.8667 26.9639,23.8667" id="Fill-2183" fill="#212121" sketch:type="MSShapeGroup"></path>
            <path d="M38.8867,23.8667 C40.3177,23.8667 41.5147,24.1437 41.8447,24.9997 C41.8497,23.9997 40.8427,22.5537 38.8867,22.5537 C36.9337,22.5537 35.8337,23.9997 35.9287,24.9997 C36.2597,24.1437 37.4567,23.8667 38.8867,23.8667" id="Fill-2184" fill="#212121" sketch:type="MSShapeGroup"></path>
            <path d="M28,35.3716 L38,35.3716 C38,35.3716 38,38.3716 33,38.3716 C28,38.3716 28,35.3716 28,35.3716" id="Fill-2185" fill="#E57373" sketch:type="MSShapeGroup"></path>
            <path d="M23,45 C23,45 16,47 15,52 C20,52 30,65 30,65 L33,65 C27.465,60.849 23,46 23,45" id="Fill-2186" fill="#FFFFFF" sketch:type="MSShapeGroup"></path>
            <path d="M43,45 C43,46 38.536,60.849 33,65 L36,65 C36,65 46,52 51,52 C50,47 43,45 43,45" id="Fill-2187" fill="#FFFFFF" sketch:type="MSShapeGroup"></path>
            <path d="M25.7681,42.1499 C25.4761,44.7519 24.9191,47.0999 24.1911,49.2059 C25.8761,54.1919 29.1841,62.1379 33.0001,64.9999 L33.0001,46.3719 C30.0661,45.3939 27.6901,43.9629 25.7681,42.1499" id="Fill-2188" fill="#F9E1C2" sketch:type="MSShapeGroup"></path>
            <path d="M13,19 L13,64 C13,64 26,56.372 26,38.078 L26,22.372 C26,6.383 40,14.372 39,5.372 C34,-3.628 13,1 13,19" id="Fill-2189" fill="#212121" sketch:type="MSShapeGroup"></path>
        </g>
        <g id="Group" sketch:type="MSLayerGroup" transform="translate(202.000000, 49.000000)">
            <path d="M48.3345,21.6064 C47.8505,21.8804 47.2935,22.0104 46.6845,21.8954 L45.0005,26.9494 L44.0005,26.9494 L43.9415,18.9494 C41.4325,18.9494 39.2915,17.3934 38.4205,15.1934 C36.1045,16.4244 33.5085,15.7434 32.0005,13.8774 C30.4925,15.7434 27.8955,16.4244 25.5795,15.1934 C24.7075,17.3934 22.5675,18.9494 20.0585,18.9494 L20.0005,26.9494 L19.0005,26.9494 L18.0005,23.9494 L18.0005,28.9464 L22.0005,38.9464 L27.1055,42.9424 C27.6745,43.5814 28.4895,43.9464 29.3455,43.9464 L32.0005,43.9464 L34.6545,43.9464 C35.5105,43.9464 36.3255,43.5814 36.8945,42.9424 L42.0005,38.9464 L45.2065,30.9314 C48.0415,30.7254 49.0005,26.4254 49.0005,23.1724 C49.0005,22.5974 48.7305,22.0274 48.3345,21.6064" id="Fill-968" fill="#A16D5A" sketch:type="MSShapeGroup"></path>
            <path d="M31.0869,14.7437 C30.2589,15.3777 29.2729,15.7647 28.2309,15.8097 C27.3559,15.8477 26.4479,15.6557 25.5799,15.1937 C24.7079,17.3937 22.5669,18.9497 20.0589,18.9497 L19.9999,26.9497 L18.9999,26.9497 L17.3159,21.8957 C16.7979,21.9937 16.1709,21.8957 15.6659,21.6077 L15.6649,21.6067 C15.2689,22.0277 14.9999,22.5977 14.9999,23.1727 C14.9999,26.4257 15.9579,30.7257 18.7939,30.9307 L21.9999,38.9467 L27.1059,42.9427 C27.6739,43.5817 28.4889,43.9467 29.3449,43.9467 L31.9999,43.9467 L31.9999,13.8777 C31.7309,14.2107 31.4179,14.4907 31.0869,14.7437" id="Fill-969" fill="#BD8B7B" sketch:type="MSShapeGroup"></path>
            <path d="M60,51.9976 C59.385,50.6646 58.302,49.6026 56.956,49.0146 L42,44.9976 L32,44.9976 L22,44.9976 L7.042,49.0146 C5.698,49.6026 4.615,50.6646 4,51.9976 L0,62.9996 L32,62.9996 L64,62.9996 L60,51.9976 Z" id="Fill-970" fill="#64B5F7" sketch:type="MSShapeGroup"></path>
            <path d="M36.8945,42.9424 C36.3255,43.5814 35.5105,43.9464 34.6545,43.9464 L32.0005,43.9464 L29.3455,43.9464 C28.4895,43.9464 27.6745,43.5814 27.1055,42.9424 L22.0005,38.9464 L22.0005,44.4944 C22.0005,44.4944 22.0005,51.9944 32.0005,51.9944 C42.0005,51.9944 42.0005,44.4944 42.0005,44.4944 L42.0005,38.9464 L36.8945,42.9424 Z" id="Fill-971" fill="#824E3E" sketch:type="MSShapeGroup"></path>
            <path d="M29.3452,43.9468 C28.4892,43.9468 27.6742,43.5818 27.1052,42.9428 L22.0002,38.9468 L22.0002,44.4938 C22.0002,44.4938 22.0002,51.9938 32.0002,51.9938 L32.0002,43.9468 L29.3452,43.9468 Z" id="Fill-972" fill="#A16D5A" sketch:type="MSShapeGroup"></path>
            <path d="M34.0317,54.9976 L35.0487,51.9736 L32.0317,49.9496 L29.0147,51.9736 L30.0317,54.9976 L27.0317,62.9976 L32.0317,62.9976 L37.0317,62.9976 L34.0317,54.9976 Z" id="Fill-973" fill="#212121" sketch:type="MSShapeGroup"></path>
            <path d="M42.0317,41.9497 C41.6477,47.6997 36.0317,48.9497 32.0317,48.9497 C28.0317,48.9497 22.4157,47.6997 22.0317,41.9497 C18.0317,41.9497 21.0317,56.9497 21.0317,56.9497 L29.0317,51.9497 L32.0317,49.9497 L35.0317,51.9497 L43.0317,56.9497 C43.0317,56.9497 46.0317,41.9497 42.0317,41.9497" id="Fill-974" fill="#FFFFFF" sketch:type="MSShapeGroup"></path>
            <path d="M32,62.9976 L32,49.9716 L29.015,51.9736 L30.032,54.9976 L27.032,62.9976 L32,62.9976 Z" id="Fill-975" fill="#545454" sketch:type="MSShapeGroup"></path>
            <path d="M29,22.9468 C29,21.8428 28.104,20.9468 27,20.9468 L26.994,20.9468 C26.995,20.9688 27,20.9888 27,21.0098 C27,22.1128 26.108,23.0068 25.006,23.0088 C25.04,24.0838 25.917,24.9468 27,24.9468 C28.104,24.9468 29,24.0508 29,22.9468" id="Fill-976" fill="#212121" sketch:type="MSShapeGroup"></path>
            <path d="M38.9937,22.9468 C38.9937,21.8428 38.0977,20.9468 36.9937,20.9468 L36.9877,20.9468 C36.9887,20.9688 36.9937,20.9888 36.9937,21.0098 C36.9937,22.1128 36.1017,23.0068 34.9997,23.0088 C35.0327,24.0838 35.9107,24.9468 36.9937,24.9468 C38.0977,24.9468 38.9937,24.0508 38.9937,22.9468" id="Fill-977" fill="#212121" sketch:type="MSShapeGroup"></path>
            <path d="M27,32.9468 L37,32.9468 C37,32.9468 37,35.9468 32,35.9468 C27,35.9468 27,32.9468 27,32.9468" id="Fill-978" fill="#733724" sketch:type="MSShapeGroup"></path>
            <path d="M49.1123,15.9292 C51.1593,12.3142 48.9393,7.7452 44.8123,7.1372 C44.2013,2.9892 39.5963,0.7782 35.9803,2.8622 C35.0683,1.6522 33.6323,0.8582 32.0003,0.8582 C30.3673,0.8582 28.9323,1.6522 28.0193,2.8622 C24.4023,0.7772 19.7983,2.9912 19.1873,7.1372 C15.0533,7.7462 12.8453,12.3222 14.8873,15.9292 C14.3423,16.5662 14.0003,17.4572 14.0003,18.4502 C14.0003,20.4362 15.4303,22.2522 17.3153,21.8952 L19.0003,26.9502 L20.0003,26.9502 L20.0583,18.9502 C22.5673,18.9502 24.7073,17.3932 25.5793,15.1942 C27.8953,16.4252 30.4923,15.7432 32.0003,13.8782 C33.5083,15.7432 36.1043,16.4242 38.4203,15.1942 C39.2913,17.3932 41.4323,18.9502 43.9423,18.9502 L44.0003,26.9502 L45.0003,26.9502 L46.6843,21.8952 C48.5503,22.2482 50.0003,20.4612 50.0003,18.4502 C50.0003,17.4572 49.6573,16.5662 49.1123,15.9292" id="Fill-979" fill="#212121" sketch:type="MSShapeGroup"></path>
        </g>
    </g>
</svg>